<?xml version="1.0" encoding="utf-8"?>
<!-- Generator: Adobe Illustrator 28.0.0, SVG Export Plug-In . SVG Version: 6.00 Build 0)  -->
<svg version="1.1" id="Capa_1" xmlns="http://www.w3.org/2000/svg" xmlns:xlink="http://www.w3.org/1999/xlink" x="0px" y="0px"
	 viewBox="0 0 1898 2372" style="enable-background:new 0 0 1898 2372;" xml:space="preserve">
<style type="text/css">
	.st0{fill:#FABEAF;}
	.st1{fill:#0C1E3D;}
	.st2{fill:#F69284;}
	.st3{fill:#DF8479;}
	.st4{fill:#122444;}
	.st5{fill:#4863A6;}
	.st6{fill:#4E6CB3;}
	.st7{fill:#E1A99C;}
	.st8{fill:none;stroke:#540806;stroke-width:1.9544;stroke-linecap:round;stroke-linejoin:round;stroke-miterlimit:10;}
	.st9{fill:#E0796F;}
	.st10{fill:#F9B0A3;}
	.st11{fill:#BDB7B2;}
	.st12{fill:#F9BBB5;}
</style>
<g>
	<path class="st0" d="M849.54,2211.76c4.22,16.77-0.95,51.69-0.95,51.69c-2.03,17.34-35.16,37.9-71.2,58.94
		c0,0-19.24,18.11-17.48,22.19c4.59,10.67,9.51,9.96,19.21,8.9c24.75-2.71,45.67-13.17,69.01-18.47c11.9-2.7,35.55-5.43,43.19-16.2
		c9.32-13.13,0.99-27.77-0.27-43.84l4.63-74.47L849.54,2211.76z"/>
	<path class="st1" d="M831.37,2315.77c-13.18,4.74-40.09,16.87-53.99,6.62c-15.2,8.99-27.29,17.81-28.23,22.15
		c-2.79,12.69,17.91,13.54,27.6,12.48c24.75-2.7,47.4-13.61,70.73-18.91c11.9-2.7,38.12-6.25,45.76-17.01
		c8.17-11.53,5.67-29.12-1.47-40.29C877.75,2299.79,852.92,2308.03,831.37,2315.77z"/>
	<path class="st0" d="M1065.18,2211.76c-4.22,16.77,0.97,51.69,0.97,51.69c2,17.34,35.15,37.9,71.19,58.94
		c0,0,19.23,18.11,17.48,22.19c-4.6,10.67-9.53,9.96-19.22,8.9c-24.75-2.71-45.68-13.17-69.01-18.47
		c-11.91-2.7-35.53-5.43-43.17-16.2c-9.33-13.13-1.01-27.77,0.25-43.84l-4.61-74.47L1065.18,2211.76z"/>
	<path class="st1" d="M1083.34,2315.77c13.19,4.74,40.1,16.87,53.99,6.62c15.21,8.99,27.29,17.81,28.24,22.15
		c2.77,12.69-17.91,13.54-27.61,12.48c-24.76-2.7-47.4-13.61-70.73-18.91c-11.9-2.7-38.13-6.25-45.77-17.01
		c-8.19-11.53-5.67-29.12,1.46-40.29C1036.96,2299.79,1061.8,2308.03,1083.34,2315.77z"/>
	<path class="st2" d="M876.73,100.54c0.07-0.15,0.14-0.3,0.22-0.45c14.25-29.53,48.84-36.85,77.72-47.3
		c60.71-21.92,137.33,27.28,165.94,78.34c18.83,33.61,14.41,91.9,16.65,128.57c3.33,54.76,9.92,81.63,40.8,126.08
		c24.33,35,40.79,76.41,36.57,118.41c-4.97,49.64-28.19,90.91-58.23,131.38c-36.48,49.12-33.8,85.65-34.29,143.36
		c-0.41,49.86-24.03,111.51-84.77,109.63c-57.02-1.76-101.5-50.3-130.51-94.65c-41.81-63.92-38.46-144.1-25.19-215.78
		c5.25-28.28,12.7-58.91,8.76-88.29c-3.43-25.67-17.7-40.76-29.39-62.96c-36.99-70.23-26.82-152.76-9.07-226.92
		C859.07,170.26,863.87,127.55,876.73,100.54z"/>
	<path class="st3" d="M897.53,109.16c7.39-18.25,16.88-35.11,30.13-47.26c30.56-27.99,96.32-12.12,127.65,5.79
		c27.29,15.6,52.72,31.75,63.11,62.1c25.05,73.05,5.47,154.27,36.07,225.97c22.2,51.98,49.75,98.1,43.81,156.6
		c-2.19,21.6-11.83,47.36-24.15,65.55c-83.16,122.75-78.23,229.86-90.12,247.61c-31.5,47.05-25.97-135.3-75.56-159.1
		c-34.53-16.58-53.81-47.38-74.79-77.73c-11-15.93-22.2-31.67-32.63-47.94c-12.08-18.79-24.55-41.49-20.03-65.2
		c4.28-22.46,32.35-30.36,42.35-51.41c9.93-20.89,5.99-48.9-0.63-70.22c-10.6-34.14-35.61-61.99-45.73-97.53
		c-7.36-25.83-8.79-51.34-0.97-77.96C882.17,157.59,888.19,132.26,897.53,109.16z"/>
	<path class="st1" d="M823.83,1633.19c8.49,49.9,25.63,58.72,64.17,60.99c38.54,2.27,21.38-6.05,26.05-45.1
		c-0.33-19.16,31.61-326.96,34.15-346.12c18.83-142.81,26.95-237.45,26.95-237.45V943.61h-143.4
		c-16.45,54.55-40.46,119.28-40.46,238.53C791.28,1366.46,820.79,1604.78,823.83,1633.19z"/>
	<path class="st1" d="M872.75,1585.45c-27.99-3.5-49.61,41.77-49.61,41.77c8.2,61.41-11.19,112.64-9.89,215.74
		c1.49,118.6,32.5,394.69,32.5,394.69c18.56,3.42,40.98,11.65,56.94-7.33c0,0,15.21-288.61,22.01-388.78
		c6.8-100.16-15.29-131.21-10.25-200.63C912,1598.94,894.51,1588.16,872.75,1585.45z"/>
	<path class="st4" d="M1093.11,1633.19c-8.49,49.9-25.63,58.72-64.17,60.99c-38.54,2.27-21.37-6.05-26.05-45.1
		c0.34-19.16-31.61-326.96-34.15-346.12c-18.83-142.81-26.95-237.45-26.95-237.45l-116.82-95.88l6.77-26.03h253.46
		c16.45,54.55,40.45,119.28,40.45,238.53C1125.65,1366.46,1096.14,1604.78,1093.11,1633.19z"/>
	<path class="st4" d="M1044.18,1585.45c27.98-3.5,49.59,41.77,49.59,41.77c-8.2,61.41,11.2,112.64,9.9,215.74
		c-1.5,118.6-32.5,394.69-32.5,394.69c-18.56,3.42-40.98,11.65-56.93-7.33c0,0-15.21-288.61-22.01-388.78
		c-6.8-100.16,15.28-131.21,10.24-200.63C1004.94,1598.94,1022.43,1588.16,1044.18,1585.45z"/>
	<path class="st5" d="M858.91,471.06c-65.99,0.04-81.48,120.95-93.21,161.22c-11.19,38.38-28.38,91.11-41.61,128.61
		c-8.19,23.19-18.69,32.14,7.19,48.55c39.73,25.2,57.53,2.75,64.11-11.94c23.05-51.38,87.12-212.33,97.08-260.02
		C903.29,485.67,858.91,471.06,858.91,471.06z"/>
	<path class="st6" d="M1075.53,447.63c39.18,4.22,62.01,10.48,67.11,25.73c5.77,17.21-53.05,189.27-71.39,284.01
		c-11.2,57.95,34.32,169.65,33.25,179.37c-1.57,14.47-195.92,124.43-287.19,37.47c-8.93-8.5,35.14-174.27,35.64-206.41
		c1.21-76.53-27.93-75.85-36.83-134.36c-10.49-68.97,35.97-156.4,42.77-162.38c0,0,15.83-8.71,26.17-10.61
		c20.53-3.77,17.62,22.43,38.03,27.8c31.51,8.3,63.31,14.3,96,14.42L1075.53,447.63z"/>
	<path class="st7" d="M1071.26,757.36c14.79-76.39,55.87-202.99,68.21-258.21c-17.45-0.04-34.91-0.56-51.24,4.67
		c-0.01,0.01-0.01,0.01-0.01,0.01c-27.69,33.62-34.91,70.8-39.47,113c-4.46,41.45-33.51,76.89-73.61,76.89
		c0,0,45.71,11.92,69.01,1.44c0,0-7.77,166.54,58.75,244.37c0.97-1.14,1.53-2.08,1.61-2.79
		C1105.58,927.02,1060.06,815.31,1071.26,757.36z"/>
	<path class="st0" d="M1075.53,447.63c-5.97,0-66.05-37.89-38.77-168.8l-13.48-2.82c-31.25,7.81-105.64,7.62-91.87,38.83
		c54.21,122.91-30.43,146.4-46.33,145.6c-21.43-1.07-14.84,96.9,70.13,96.9c84.95,0,109.97-77.39,115.15-88.64
		C1076.28,455.85,1075.53,447.63,1075.53,447.63z"/>
	<path class="st0" d="M765.91,782.53c-39.07-21.93-50.02,24.83-62.01,51.12c-16.29,35.69-72.59,149.07-80.37,157.64
		c-7.78,8.57-15.1,19.01-27.9,26.53c-14.79,8.68-25.61,17.97-34.66,32.46c-3.34,5.37-8.3,16.35-5.27,19.26
		c5.35,5.12,9.09,0.2,14.81-8.7c1.57-2.43,8.35-8,11.24-13.12c-4.45,17.14-28.31,39.35-32.17,60.44
		c-2.35,12.8-0.33,21.44,13.85,22.87c17.35,1.76,18.34-12.78,30.46-20.72c4.87-3.2,15.49-3.32,25.51-19.55
		c5.59-9.07,11.17-20.63,14.31-30.69c4.01-12.82,8.8-30.26,13.33-39.56c4.55-9.29,99.27-123.52,114.51-156.62
		C779.61,824.68,781.62,791.35,765.91,782.53z"/>
	<path class="st6" d="M1112.84,458.11c65.98,0.81,62.93,121.69,74.2,162.09c10.75,38.51,27.31,91.44,40.09,129.1
		c7.92,23.28,18.32,32.36-7.75,48.46c-40.02,24.73-57.55,2.08-63.97-12.69c-22.45-51.65-71.07-205.28-80.47-253.09
		C1064.74,480.06,1112.84,458.11,1112.84,458.11z"/>
	<path class="st0" d="M1185.07,770.44c39.32-21.47,49.73,25.41,61.41,51.84c15.85,35.88,70.84,149.91,78.52,158.57
		c7.68,8.66,14.88,19.18,27.59,26.85c14.69,8.86,25.4,18.27,34.27,32.87c3.29,5.4,8.12,16.45,5.04,19.32
		c-5.39,5.06-9.08,0.09-14.69-8.86c-1.54-2.46-8.25-8.1-11.09-13.26c4.26,17.2,27.85,39.68,31.49,60.81
		c2.19,12.82,0.05,21.44-14.14,22.71c-17.37,1.55-18.19-13-30.21-21.09c-4.85-3.25-15.46-3.5-25.28-19.84
		c-5.49-9.14-10.93-20.76-13.95-30.85c-3.86-12.87-8.44-30.36-12.87-39.71c-4.43-9.34-97.82-124.67-112.67-157.95
		C1170.88,812.43,1169.26,779.08,1185.07,770.44z"/>
	<path class="st7" d="M1040.06,404.03c-10.39-24.99-15.64-75.05-3.3-125.2h-11.23c-33.46,5.76-67.24,12.35-95.53,26.41
		c-0.55,2.83-0.19,6,1.41,9.6c10.71,24.29,15.94,44.64,17.41,61.74c13.23,0.74,27.74-0.41,41.44,1.77
		C1010.36,381.56,1028.1,393.69,1040.06,404.03z"/>
	<g>
		<g>
			<path class="st0" d="M893.19,154.42c-11.29,26.63-5.47,38.98-3.9,64.04c1.49,23.88,0.7,28.66,5.02,48.07
				c5.49,24.74,26.3,45.28,47.65,60.72c34.99,22.98,67.27-4.08,87.19-33.54c39.05-57.71,35.97-117.05,22.01-148.53
				c-19.63-45.51-63.13-47.57-105.65-37.72C945.51,107.46,910.91,112.66,893.19,154.42z"/>
		</g>
	</g>
	<g>
		<g>
			<g>
				<path class="st8" d="M923.81,227.51c0,0-1.57-5.06-7.25-5.06c-5.67,0-6.6,5.06-6.6,5.06"/>
			</g>
			<g>
				<path class="st8" d="M992.06,227.51c0,0,1.59-5.06,7.26-5.06c5.67,0,6.59,5.06,6.59,5.06"/>
			</g>
			<g>
				<g>
					<path class="st9" d="M984.5,208.67c1.76-0.19,3.29-1.21,4.84-2.03c1.22-0.64,2.02-1.01,3.11-1.38
						c0.54-0.18,1.08-0.34,1.63-0.47c0.29-0.07,0.58-0.12,0.87-0.18c0.73-0.17-0.56,0.02,0.23-0.04c1.03-0.09,2.02-0.07,3.05-0.01
						c0.71,0.04-0.44-0.11,0-0.01c0.36,0.08,1.41,0.36,1.54,0.21c0.28,0.03,0.19,0.02-0.27-0.04c0.1,0.01,0.19,0.03,0.29,0.04
						c0.29,0.05,0.58,0.1,0.87,0.16c1.14,0.23,2.27,0.53,3.39,0.86c2.94,0.87,6.56,2.84,9.44,1.02c0.83-0.53,1.42-1.65,1.08-2.64
						c-0.37-1.07-0.82-2.02-1.81-2.66c-0.8-0.51-1.75-0.95-2.63-1.29c-1.36-0.53-2.75-0.99-4.14-1.43c-2.54-0.8-5.21-1.51-7.89-1.43
						c-2.75,0.08-5.33,0.77-7.82,1.9c-1.26,0.57-2.45,1.27-3.6,2.04c-1.45,0.97-3.45,2.2-4.2,3.83
						C981.81,206.55,982.53,208.88,984.5,208.67L984.5,208.67z"/>
				</g>
			</g>
			<g>
				<g>
					<path class="st9" d="M931.9,205.12c-0.7-1.63-2.73-2.86-4.16-3.81c-1.14-0.76-2.33-1.46-3.57-2.03
						c-2.51-1.16-5.12-1.85-7.89-1.94c-2.59-0.08-5.19,0.58-7.65,1.35c-1.36,0.43-2.72,0.89-4.06,1.39c-0.96,0.36-1.92,0.8-2.8,1.32
						c-1.13,0.67-1.57,1.56-1.98,2.75c-0.34,1,0.24,2.11,1.08,2.64c2.87,1.81,6.44-0.13,9.37-1c1.11-0.33,2.23-0.63,3.36-0.86
						c0.29-0.06,0.58-0.1,0.87-0.16c0.79-0.16-0.7,0.09,0.15-0.03c0.46-0.06,0.93-0.1,1.39-0.19c0.3-0.06-0.72,0.05,0.13-0.01
						c1.01-0.07,2-0.08,3.01,0.01c0.22,0.02-0.54-0.11,0.21,0.04c0.24,0.05,0.48,0.09,0.71,0.14c0.59,0.13,1.18,0.3,1.75,0.49
						c1.17,0.39,1.82,0.69,3.06,1.33c1.58,0.83,3.17,1.94,4.98,2.1C931.85,208.84,932.53,206.58,931.9,205.12L931.9,205.12z"/>
				</g>
			</g>
		</g>
		<path class="st10" d="M1031.19,240.94c-15.47-8.35-52.09,19.91-27.83,33.33C1027.6,287.68,1046.64,249.28,1031.19,240.94z"/>
		<path class="st10" d="M890.51,240.43c0.5,8.52,1.24,14.92,3.85,26.68c0.51,2.25,1.17,4.45,1.91,6.63
			c5.77,3.76,13.07,4.87,20.93,0.52C940.89,261.16,906.52,233.91,890.51,240.43z"/>
		<g>
			<g>
				<g>
					<path class="st11" d="M932.68,208.52c1.64,2.94,3.57,5.7,5.18,8.65c1.66,3.04,2.84,6.2,4.03,9.44c0.1,0.26,0.55,0.25,0.52-0.07
						c-0.32-3.43-1.8-6.67-3.49-9.64c-1.72-3.03-3.82-5.89-6.19-8.42C932.7,208.45,932.66,208.49,932.68,208.52L932.68,208.52z"/>
				</g>
			</g>
			<g>
				<g>
					<path class="st11" d="M946.14,241.08c0.72,6.1-0.3,11.86-1.98,17.7c-0.61,2.13-1.21,4.29-1.32,6.51
						c-0.11,2.15,2.44,3.38,4.19,3.96c2.45,0.81,5.38,0.98,7.77-0.12c0.2-0.09,0.06-0.44-0.15-0.36c-2.82,1.05-6.49,0.35-8.94-1.33
						c-0.51-0.35-1.19-0.85-1.48-1.42c-0.29-0.55-0.13-1.27-0.07-1.88c0.14-1.26,0.42-2.5,0.73-3.72c0.72-2.85,1.56-5.66,1.99-8.57
						c0.53-3.64,0.32-7.22-0.41-10.82C946.43,240.86,946.12,240.9,946.14,241.08L946.14,241.08z"/>
				</g>
			</g>
		</g>
		<g>
			<g>
				<g>
					<path class="st7" d="M960.35,311.58c0.72-0.58,1.49-1.1,2.3-1.54c0.79-0.43,1.6-0.88,2.43-1.21c0.85-0.33,1.71-0.49,2.6-0.67
						c0.39-0.08,0.76-0.19,1.15-0.24c0.49-0.07,0.98-0.05,1.46-0.17c0.54-0.13,0.57-0.85,0.15-1.13c-0.79-0.52-2.04-0.68-2.98-0.68
						c-1.02,0-2.12,0.33-3.07,0.69c-1.04,0.4-1.97,0.87-2.85,1.56c-0.85,0.67-1.62,1.44-2.31,2.27
						C958.57,311.25,959.56,312.22,960.35,311.58L960.35,311.58z"/>
				</g>
			</g>
		</g>
		<g>
			<path class="st12" d="M986.31,281.57c0,0-7.8,2.27-20.81,2.27c-2.13,0-5.71,0.22-8.36,4c-2.28-1.47-4.09-2.81-7.25-1.46
				c-4.53,1.94-9.94,1.72-9.94,1.72s1.75,3.32,4.38,6.21c3.44,3.79,8.21,7.56,15.47,6.94c10.93-0.93,17.44-6.45,20.96-11.13
				C983.82,286.04,986.31,281.57,986.31,281.57z"/>
			<g>
				<g>
					<path class="st12" d="M986.25,281.46c-4.58,3.07-9.03,6.15-14.13,8.37c-8.52,3.71-18.58,5.18-27.24,1.12
						c-1.64-0.77-3.59-1.58-4.85-2.94c-0.1-0.11-0.27,0.06-0.17,0.17c3.81,4.1,9.34,5.93,14.85,6.16c9.39,0.38,18.79-3.55,26.5-8.65
						c1.81-1.2,3.73-2.42,5.18-4.04C986.48,281.55,986.37,281.38,986.25,281.46L986.25,281.46z"/>
				</g>
			</g>
		</g>
	</g>
	<g>
		<path class="st2" d="M1133.83,139.43c-29.01-145.18-121.15-109.6-121.84-110.25c-35.49-33.63-99.97-8.37-136.53,70.8
			c-9.93,21.53-27.5,153.37-7.81,106.81c19.67-46.57,97.31-22.03,116.48-74.2c2.19,45.26,41.73,48.83,45.85,70.58
			c5.07,26.79,20.04,26.05,25.15,19.22c7.14-9.52,2.71,9.99-6.99,35.86c-3.76,10-15.96,49.99-11.37,74.24
			c4.61,24.26,33.31,43.45,12.67,93.35c-27.11,65.56,13.08,85.25,11.27,138.67c-1.82,53.42-24.15,53.42-29.73,89.3
			c-5.58,35.88,11.96,123.03,54.14,101.02c9.44-4.93,4.98-24.02,6.41-34.1c1.48-10.46,4.29-21.14,6.67-31.46
			c10.1-43.96,41.42-74.5,59.39-114.59c17.32-38.65,30.85-80.27,19.31-123c-4.38-16.22-10-31.79-17.53-46.88
			c-12.32-24.66-24.93-46.84-32.27-73.77C1109.23,265.78,1146.82,204.48,1133.83,139.43z"/>
		<g>
			<path class="st0" d="M1044.28,228.07c6.27-16.35,34.15-28.35,34.15-1.41c0,22.19-30.84,64.14-36.93,21.49L1044.28,228.07z"/>
		</g>
	</g>
</g>
</svg>
