<?xml version="1.0" encoding="utf-8"?>
<!-- Generator: Adobe Illustrator 28.0.0, SVG Export Plug-In . SVG Version: 6.00 Build 0)  -->
<svg version="1.1" id="Layer_1" xmlns="http://www.w3.org/2000/svg" xmlns:xlink="http://www.w3.org/1999/xlink" x="0px" y="0px"
	 viewBox="0 0 442.2 4424.88" style="enable-background:new 0 0 442.2 4424.88;" xml:space="preserve">
<style type="text/css">
	.st0{fill:#008741;}
	.st1{fill:#00A651;stroke:#009444;stroke-width:14;stroke-miterlimit:10;}
	.st2{fill:#009444;}
	.st3{fill:#009444;stroke:#009444;stroke-width:10;stroke-miterlimit:10;}
</style>
<g>
	<path class="st0" d="M428.05,4424.88H14.16c-7.82,0-14.16-6.34-14.16-14.16v-71.45c0-7.82,6.34-14.16,14.16-14.16h413.89
		c7.82,0,14.16,6.34,14.16,14.16v71.45C442.2,4418.54,435.87,4424.88,428.05,4424.88z"/>
	<path class="st1" d="M415.59,4384.25H26.62c-10.7,0-19.37-8.67-19.37-19.37v-30.85c0-10.7,8.67-19.37,19.37-19.37h388.97
		c10.7,0,19.37,8.67,19.37,19.37v30.85C434.96,4375.58,426.29,4384.25,415.59,4384.25z"/>
</g>
<g>
	<path class="st0" d="M428.05,4380.22H14.16c-7.82,0-14.16-6.34-14.16-14.16v-71.45c0-7.82,6.34-14.16,14.16-14.16h413.89
		c7.82,0,14.16,6.34,14.16,14.16v71.45C442.2,4373.88,435.87,4380.22,428.05,4380.22z"/>
	<path class="st1" d="M415.59,4339.59H26.62c-10.7,0-19.37-8.67-19.37-19.37v-30.85c0-10.7,8.67-19.37,19.37-19.37h388.97
		c10.7,0,19.37,8.67,19.37,19.37v30.85C434.96,4330.92,426.29,4339.59,415.59,4339.59z"/>
</g>
<g>
	<path class="st0" d="M428.54,4338.4H14.66c-7.82,0-14.16-6.34-14.16-14.16v-71.45c0-7.82,6.34-14.16,14.16-14.16h413.89
		c7.82,0,14.16,6.34,14.16,14.16v71.45C442.7,4332.06,436.36,4338.4,428.54,4338.4z"/>
	<path class="st1" d="M416.09,4297.77H27.11c-10.7,0-19.37-8.67-19.37-19.37v-30.85c0-10.7,8.67-19.37,19.37-19.37h388.97
		c10.7,0,19.37,8.67,19.37,19.37v30.85C435.46,4289.1,426.79,4297.77,416.09,4297.77z"/>
</g>
<g>
	<path class="st0" d="M427.8,4298.11H13.91c-7.82,0-14.16-6.34-14.16-14.16v-71.45c0-7.82,6.34-14.16,14.16-14.16H427.8
		c7.82,0,14.16,6.34,14.16,14.16v71.45C441.96,4291.77,435.62,4298.11,427.8,4298.11z"/>
	<path class="st1" d="M415.34,4257.48H26.37c-10.7,0-19.37-8.67-19.37-19.37v-30.85c0-10.7,8.67-19.37,19.37-19.37h388.97
		c10.7,0,19.37,8.67,19.37,19.37v30.85C434.71,4248.81,426.04,4257.48,415.34,4257.48z"/>
</g>
<g>
	<path class="st0" d="M427.8,4254.15H13.91c-7.82,0-14.16-6.34-14.16-14.16v-71.45c0-7.82,6.34-14.16,14.16-14.16H427.8
		c7.82,0,14.16,6.34,14.16,14.16v71.45C441.96,4247.81,435.62,4254.15,427.8,4254.15z"/>
	<path class="st1" d="M415.34,4213.52H26.37c-10.7,0-19.37-8.67-19.37-19.37v-30.85c0-10.7,8.67-19.37,19.37-19.37h388.97
		c10.7,0,19.37,8.67,19.37,19.37v30.85C434.71,4204.85,426.04,4213.52,415.34,4213.52z"/>
</g>
<g>
	<g>
		<path class="st0" d="M428.54,4212.41H14.66c-7.82,0-14.16-6.34-14.16-14.16v-71.45c0-7.82,6.34-14.16,14.16-14.16h413.89
			c7.82,0,14.16,6.34,14.16,14.16v71.45C442.7,4206.07,436.36,4212.41,428.54,4212.41z"/>
		<path class="st1" d="M416.09,4171.78H27.11c-10.7,0-19.37-8.67-19.37-19.37v-30.85c0-10.7,8.67-19.37,19.37-19.37h388.97
			c10.7,0,19.37,8.67,19.37,19.37v30.85C435.46,4163.11,426.79,4171.78,416.09,4171.78z"/>
	</g>
	<g>
		<path class="st0" d="M427.55,4172.97H13.66c-7.82,0-14.16-6.34-14.16-14.16v-71.45c0-7.82,6.34-14.16,14.16-14.16h413.89
			c7.82,0,14.16,6.34,14.16,14.16v71.45C441.71,4166.63,435.37,4172.97,427.55,4172.97z"/>
		<path class="st1" d="M415.09,4132.35H26.12c-10.7,0-19.37-8.67-19.37-19.37v-30.85c0-10.7,8.67-19.37,19.37-19.37h388.97
			c10.7,0,19.37,8.67,19.37,19.37v30.85C434.46,4123.67,425.79,4132.35,415.09,4132.35z"/>
	</g>
	<g>
		<path class="st0" d="M428.21,4128.31H14.33c-7.82,0-14.16-6.34-14.16-14.16v-71.45c0-7.82,6.34-14.16,14.16-14.16h413.89
			c7.82,0,14.16,6.34,14.16,14.16v71.45C442.37,4121.98,436.03,4128.31,428.21,4128.31z"/>
		<path class="st1" d="M415.76,4087.69H26.78c-10.7,0-19.37-8.67-19.37-19.37v-30.85c0-10.7,8.67-19.37,19.37-19.37h388.97
			c10.7,0,19.37,8.67,19.37,19.37v30.85C435.13,4079.01,426.45,4087.69,415.76,4087.69z"/>
	</g>
	<g>
		<path class="st0" d="M428.54,4083.65H14.66c-7.82,0-14.16-6.34-14.16-14.16v-71.45c0-7.82,6.34-14.16,14.16-14.16h413.89
			c7.82,0,14.16,6.34,14.16,14.16v71.45C442.7,4077.31,436.36,4083.65,428.54,4083.65z"/>
		<path class="st1" d="M416.09,4043.03H27.11c-10.7,0-19.37-8.67-19.37-19.37v-30.85c0-10.7,8.67-19.37,19.37-19.37h388.97
			c10.7,0,19.37,8.67,19.37,19.37v30.85C435.46,4034.35,426.79,4043.03,416.09,4043.03z"/>
	</g>
	<g>
		<path class="st0" d="M427.55,4041.32H13.66c-7.82,0-14.16-6.34-14.16-14.16v-71.45c0-7.82,6.34-14.16,14.16-14.16h413.89
			c7.82,0,14.16,6.34,14.16,14.16v71.45C441.71,4034.98,435.37,4041.32,427.55,4041.32z"/>
		<path class="st1" d="M415.09,4000.7H26.12c-10.7,0-19.37-8.67-19.37-19.37v-30.85c0-10.7,8.67-19.37,19.37-19.37h388.97
			c10.7,0,19.37,8.67,19.37,19.37v30.85C434.46,3992.02,425.79,4000.7,415.09,4000.7z"/>
	</g>
	<g>
		<path class="st0" d="M427.55,3999.15H13.66c-7.82,0-14.16-6.34-14.16-14.16v-71.45c0-7.82,6.34-14.16,14.16-14.16h413.89
			c7.82,0,14.16,6.34,14.16,14.16v71.45C441.71,3992.81,435.37,3999.15,427.55,3999.15z"/>
		<path class="st1" d="M415.09,3958.52H26.12c-10.7,0-19.37-8.67-19.37-19.37v-30.85c0-10.7,8.67-19.37,19.37-19.37h388.97
			c10.7,0,19.37,8.67,19.37,19.37v30.85C434.46,3949.85,425.79,3958.52,415.09,3958.52z"/>
	</g>
	<g>
		<path class="st0" d="M428.54,3958.86H14.66c-7.82,0-14.16-6.34-14.16-14.16v-71.45c0-7.82,6.34-14.16,14.16-14.16h413.89
			c7.82,0,14.16,6.34,14.16,14.16v71.45C442.7,3952.52,436.36,3958.86,428.54,3958.86z"/>
		<path class="st1" d="M416.09,3918.23H27.11c-10.7,0-19.37-8.67-19.37-19.37v-30.85c0-10.7,8.67-19.37,19.37-19.37h388.97
			c10.7,0,19.37,8.67,19.37,19.37v30.85C435.46,3909.56,426.79,3918.23,416.09,3918.23z"/>
	</g>
	<g>
		<path class="st0" d="M428.54,3914.9H14.66c-7.82,0-14.16-6.34-14.16-14.16v-71.45c0-7.82,6.34-14.16,14.16-14.16h413.89
			c7.82,0,14.16,6.34,14.16,14.16v71.45C442.7,3908.56,436.36,3914.9,428.54,3914.9z"/>
		<path class="st1" d="M416.09,3874.27H27.11c-10.7,0-19.37-8.67-19.37-19.37v-30.85c0-10.7,8.67-19.37,19.37-19.37h388.97
			c10.7,0,19.37,8.67,19.37,19.37v30.85C435.46,3865.6,426.79,3874.27,416.09,3874.27z"/>
	</g>
</g>
<g>
	<path class="st0" d="M427.63,3870.84H13.74c-7.82,0-14.16-6.34-14.16-14.16v-71.45c0-7.82,6.34-14.16,14.16-14.16h413.89
		c7.82,0,14.16,6.34,14.16,14.16v71.45C441.79,3864.5,435.45,3870.84,427.63,3870.84z"/>
	<path class="st1" d="M415.17,3830.22H26.2c-10.7,0-19.37-8.67-19.37-19.37V3780c0-10.7,8.67-19.37,19.37-19.37h388.97
		c10.7,0,19.37,8.67,19.37,19.37v30.85C434.54,3821.54,425.87,3830.22,415.17,3830.22z"/>
</g>
<g>
	<g>
		<g>
			<path class="st0" d="M428.21,3828.48H14.33c-7.82,0-14.16-6.34-14.16-14.16v-71.45c0-7.82,6.34-14.16,14.16-14.16h413.89
				c7.82,0,14.16,6.34,14.16,14.16v71.45C442.37,3822.14,436.03,3828.48,428.21,3828.48z"/>
			<path class="st1" d="M415.76,3787.85H26.78c-10.7,0-19.37-8.67-19.37-19.37v-30.85c0-10.7,8.67-19.37,19.37-19.37h388.97
				c10.7,0,19.37,8.67,19.37,19.37v30.85C435.13,3779.18,426.45,3787.85,415.76,3787.85z"/>
		</g>
		<g>
			<path class="st0" d="M427.21,3789.04H13.33c-7.82,0-14.16-6.34-14.16-14.16v-71.45c0-7.82,6.34-14.16,14.16-14.16h413.89
				c7.82,0,14.16,6.34,14.16,14.16v71.45C441.37,3782.71,435.03,3789.04,427.21,3789.04z"/>
			<path class="st1" d="M414.76,3748.42H25.78c-10.7,0-19.37-8.67-19.37-19.37v-30.85c0-10.7,8.67-19.37,19.37-19.37h388.97
				c10.7,0,19.37,8.67,19.37,19.37v30.85C434.13,3739.74,425.46,3748.42,414.76,3748.42z"/>
		</g>
		<g>
			<path class="st0" d="M427.88,3744.38H13.99c-7.82,0-14.16-6.34-14.16-14.16v-71.45c0-7.82,6.34-14.16,14.16-14.16h413.89
				c7.82,0,14.16,6.34,14.16,14.16v71.45C442.04,3738.05,435.7,3744.38,427.88,3744.38z"/>
			<path class="st1" d="M415.42,3703.76H26.45c-10.7,0-19.37-8.67-19.37-19.37v-30.85c0-10.7,8.67-19.37,19.37-19.37h388.97
				c10.7,0,19.37,8.67,19.37,19.37v30.85C434.79,3695.08,426.12,3703.76,415.42,3703.76z"/>
		</g>
		<g>
			<path class="st0" d="M428.21,3699.72H14.33c-7.82,0-14.16-6.34-14.16-14.16v-71.45c0-7.82,6.34-14.16,14.16-14.16h413.89
				c7.82,0,14.16,6.34,14.16,14.16v71.45C442.37,3693.39,436.03,3699.72,428.21,3699.72z"/>
			<path class="st1" d="M415.76,3659.1H26.78c-10.7,0-19.37-8.67-19.37-19.37v-30.85c0-10.7,8.67-19.37,19.37-19.37h388.97
				c10.7,0,19.37,8.67,19.37,19.37v30.85C435.13,3650.42,426.45,3659.1,415.76,3659.1z"/>
		</g>
		<g>
			<path class="st0" d="M427.21,3657.39H13.33c-7.82,0-14.16-6.34-14.16-14.16v-71.45c0-7.82,6.34-14.16,14.16-14.16h413.89
				c7.82,0,14.16,6.34,14.16,14.16v71.45C441.37,3651.05,435.03,3657.39,427.21,3657.39z"/>
			<path class="st1" d="M414.76,3616.77H25.78c-10.7,0-19.37-8.67-19.37-19.37v-30.85c0-10.7,8.67-19.37,19.37-19.37h388.97
				c10.7,0,19.37,8.67,19.37,19.37v30.85C434.13,3608.09,425.46,3616.77,414.76,3616.77z"/>
		</g>
		<g>
			<path class="st0" d="M427.21,3615.22H13.33c-7.82,0-14.16-6.34-14.16-14.16v-71.45c0-7.82,6.34-14.16,14.16-14.16h413.89
				c7.82,0,14.16,6.34,14.16,14.16v71.45C441.37,3608.88,435.03,3615.22,427.21,3615.22z"/>
			<path class="st1" d="M414.76,3574.59H25.78c-10.7,0-19.37-8.67-19.37-19.37v-30.85c0-10.7,8.67-19.37,19.37-19.37h388.97
				c10.7,0,19.37,8.67,19.37,19.37v30.85C434.13,3565.92,425.46,3574.59,414.76,3574.59z"/>
		</g>
		<g>
			<path class="st0" d="M428.21,3574.93H14.33c-7.82,0-14.16-6.34-14.16-14.16v-71.45c0-7.82,6.34-14.16,14.16-14.16h413.89
				c7.82,0,14.16,6.34,14.16,14.16v71.45C442.37,3568.59,436.03,3574.93,428.21,3574.93z"/>
			<path class="st1" d="M415.76,3534.3H26.78c-10.7,0-19.37-8.67-19.37-19.37v-30.85c0-10.7,8.67-19.37,19.37-19.37h388.97
				c10.7,0,19.37,8.67,19.37,19.37v30.85C435.13,3525.63,426.45,3534.3,415.76,3534.3z"/>
		</g>
		<g>
			<path class="st0" d="M428.21,3530.97H14.33c-7.82,0-14.16-6.34-14.16-14.16v-71.45c0-7.82,6.34-14.16,14.16-14.16h413.89
				c7.82,0,14.16,6.34,14.16,14.16v71.45C442.37,3524.63,436.03,3530.97,428.21,3530.97z"/>
			<path class="st1" d="M415.76,3490.34H26.78c-10.7,0-19.37-8.67-19.37-19.37v-30.85c0-10.7,8.67-19.37,19.37-19.37h388.97
				c10.7,0,19.37,8.67,19.37,19.37v30.85C435.13,3481.67,426.45,3490.34,415.76,3490.34z"/>
		</g>
	</g>
	<g>
		<g>
			<path class="st0" d="M428.05,3489.23H14.16c-7.82,0-14.16-6.34-14.16-14.16v-71.45c0-7.82,6.34-14.16,14.16-14.16h413.89
				c7.82,0,14.16,6.34,14.16,14.16v71.45C442.2,3482.89,435.87,3489.23,428.05,3489.23z"/>
			<path class="st1" d="M415.59,3448.6H26.62c-10.7,0-19.37-8.67-19.37-19.37v-30.85c0-10.7,8.67-19.37,19.37-19.37h388.97
				c10.7,0,19.37,8.67,19.37,19.37v30.85C434.96,3439.93,426.29,3448.6,415.59,3448.6z"/>
		</g>
		<g>
			<path class="st0" d="M427.05,3449.79H13.16c-7.82,0-14.16-6.34-14.16-14.16v-71.45c0-7.82,6.34-14.16,14.16-14.16h413.89
				c7.82,0,14.16,6.34,14.16,14.16v71.45C441.21,3443.45,434.87,3449.79,427.05,3449.79z"/>
			<path class="st1" d="M414.59,3409.17H25.62c-10.7,0-19.37-8.67-19.37-19.37v-30.85c0-10.7,8.67-19.37,19.37-19.37h388.97
				c10.7,0,19.37,8.67,19.37,19.37v30.85C433.96,3400.49,425.29,3409.17,414.59,3409.17z"/>
		</g>
		<g>
			<path class="st0" d="M427.71,3405.13H13.83c-7.82,0-14.16-6.34-14.16-14.16v-71.45c0-7.82,6.34-14.16,14.16-14.16h413.89
				c7.82,0,14.16,6.34,14.16,14.16v71.45C441.87,3398.79,435.53,3405.13,427.71,3405.13z"/>
			<path class="st1" d="M415.26,3364.51H26.28c-10.7,0-19.37-8.67-19.37-19.37v-30.85c0-10.7,8.67-19.37,19.37-19.37h388.97
				c10.7,0,19.37,8.67,19.37,19.37v30.85C434.63,3355.83,425.95,3364.51,415.26,3364.51z"/>
		</g>
		<g>
			<path class="st0" d="M428.05,3360.47H14.16c-7.82,0-14.16-6.34-14.16-14.16v-71.45c0-7.82,6.34-14.16,14.16-14.16h413.89
				c7.82,0,14.16,6.34,14.16,14.16v71.45C442.2,3354.13,435.87,3360.47,428.05,3360.47z"/>
			<path class="st1" d="M415.59,3319.85H26.62c-10.7,0-19.37-8.67-19.37-19.37v-30.85c0-10.7,8.67-19.37,19.37-19.37h388.97
				c10.7,0,19.37,8.67,19.37,19.37v30.85C434.96,3311.17,426.29,3319.85,415.59,3319.85z"/>
		</g>
		<g>
			<path class="st0" d="M427.05,3318.14H13.16c-7.82,0-14.16-6.34-14.16-14.16v-71.45c0-7.82,6.34-14.16,14.16-14.16h413.89
				c7.82,0,14.16,6.34,14.16,14.16v71.45C441.21,3311.8,434.87,3318.14,427.05,3318.14z"/>
			<path class="st1" d="M414.59,3277.51H25.62c-10.7,0-19.37-8.67-19.37-19.37v-30.85c0-10.7,8.67-19.37,19.37-19.37h388.97
				c10.7,0,19.37,8.67,19.37,19.37v30.85C433.96,3268.84,425.29,3277.51,414.59,3277.51z"/>
		</g>
		<g>
			<path class="st0" d="M427.05,3275.97H13.16c-7.82,0-14.16-6.34-14.16-14.16v-71.45c0-7.82,6.34-14.16,14.16-14.16h413.89
				c7.82,0,14.16,6.34,14.16,14.16v71.45C441.21,3269.63,434.87,3275.97,427.05,3275.97z"/>
			<path class="st1" d="M414.59,3235.34H25.62c-10.7,0-19.37-8.67-19.37-19.37v-30.85c0-10.7,8.67-19.37,19.37-19.37h388.97
				c10.7,0,19.37,8.67,19.37,19.37v30.85C433.96,3226.67,425.29,3235.34,414.59,3235.34z"/>
		</g>
		<g>
			<path class="st0" d="M428.05,3235.68H14.16c-7.82,0-14.16-6.34-14.16-14.16v-71.45c0-7.82,6.34-14.16,14.16-14.16h413.89
				c7.82,0,14.16,6.34,14.16,14.16v71.45C442.2,3229.34,435.87,3235.68,428.05,3235.68z"/>
			<path class="st1" d="M415.59,3195.05H26.62c-10.7,0-19.37-8.67-19.37-19.37v-30.85c0-10.7,8.67-19.37,19.37-19.37h388.97
				c10.7,0,19.37,8.67,19.37,19.37v30.85C434.96,3186.38,426.29,3195.05,415.59,3195.05z"/>
		</g>
		<g>
			<path class="st0" d="M428.05,3191.71H14.16c-7.82,0-14.16-6.34-14.16-14.16v-71.45c0-7.82,6.34-14.16,14.16-14.16h413.89
				c7.82,0,14.16,6.34,14.16,14.16v71.45C442.2,3185.38,435.87,3191.71,428.05,3191.71z"/>
			<path class="st1" d="M415.59,3151.09H26.62c-10.7,0-19.37-8.67-19.37-19.37v-30.85c0-10.7,8.67-19.37,19.37-19.37h388.97
				c10.7,0,19.37,8.67,19.37,19.37v30.85C434.96,3142.41,426.29,3151.09,415.59,3151.09z"/>
		</g>
	</g>
	<g>
		<path class="st0" d="M428.05,3147.66H14.16c-7.82,0-14.16-6.34-14.16-14.16v-71.45c0-7.82,6.34-14.16,14.16-14.16h413.89
			c7.82,0,14.16,6.34,14.16,14.16v71.45C442.2,3141.32,435.87,3147.66,428.05,3147.66z"/>
		<path class="st1" d="M415.59,3107.03H26.62c-10.7,0-19.37-8.67-19.37-19.37v-30.85c0-10.7,8.67-19.37,19.37-19.37h388.97
			c10.7,0,19.37,8.67,19.37,19.37v30.85C434.96,3098.36,426.29,3107.03,415.59,3107.03z"/>
	</g>
</g>
<g>
	<g>
		<g>
			<g>
				<path class="st0" d="M428.42,3106.24H14.53c-7.82,0-14.16-6.34-14.16-14.16v-71.45c0-7.82,6.34-14.16,14.16-14.16h413.89
					c7.82,0,14.16,6.34,14.16,14.16v71.45C442.58,3099.9,436.24,3106.24,428.42,3106.24z"/>
				<path class="st1" d="M415.96,3065.62H26.99c-10.7,0-19.37-8.67-19.37-19.37v-30.85c0-10.7,8.67-19.37,19.37-19.37h388.97
					c10.7,0,19.37,8.67,19.37,19.37v30.85C435.33,3056.94,426.66,3065.62,415.96,3065.62z"/>
			</g>
			<g>
				<path class="st0" d="M427.42,3066.81H13.54c-7.82,0-14.16-6.34-14.16-14.16v-71.45c0-7.82,6.34-14.16,14.16-14.16h413.89
					c7.82,0,14.16,6.34,14.16,14.16v71.45C441.58,3060.47,435.24,3066.81,427.42,3066.81z"/>
				<path class="st1" d="M414.97,3026.18H25.99c-10.7,0-19.37-8.67-19.37-19.37v-30.85c0-10.7,8.67-19.37,19.37-19.37h388.97
					c10.7,0,19.37,8.67,19.37,19.37v30.85C434.34,3017.51,425.66,3026.18,414.97,3026.18z"/>
			</g>
			<g>
				<path class="st0" d="M428.09,3022.15H14.2c-7.82,0-14.16-6.34-14.16-14.16v-71.45c0-7.82,6.34-14.16,14.16-14.16h413.89
					c7.82,0,14.16,6.34,14.16,14.16v71.45C442.25,3015.81,435.91,3022.15,428.09,3022.15z"/>
				<path class="st1" d="M415.63,2981.52H26.66c-10.7,0-19.37-8.67-19.37-19.37v-30.85c0-10.7,8.67-19.37,19.37-19.37h388.97
					c10.7,0,19.37,8.67,19.37,19.37v30.85C435,2972.85,426.33,2981.52,415.63,2981.52z"/>
			</g>
			<g>
				<path class="st0" d="M428.42,2977.49H14.53c-7.82,0-14.16-6.34-14.16-14.16v-71.45c0-7.82,6.34-14.16,14.16-14.16h413.89
					c7.82,0,14.16,6.34,14.16,14.16v71.45C442.58,2971.15,436.24,2977.49,428.42,2977.49z"/>
				<path class="st1" d="M415.96,2936.86H26.99c-10.7,0-19.37-8.67-19.37-19.37v-30.85c0-10.7,8.67-19.37,19.37-19.37h388.97
					c10.7,0,19.37,8.67,19.37,19.37v30.85C435.33,2928.19,426.66,2936.86,415.96,2936.86z"/>
			</g>
			<g>
				<path class="st0" d="M427.42,2935.16H13.54c-7.82,0-14.16-6.34-14.16-14.16v-71.45c0-7.82,6.34-14.16,14.16-14.16h413.89
					c7.82,0,14.16,6.34,14.16,14.16V2921C441.58,2928.82,435.24,2935.16,427.42,2935.16z"/>
				<path class="st1" d="M414.97,2894.53H25.99c-10.7,0-19.37-8.67-19.37-19.37v-30.85c0-10.7,8.67-19.37,19.37-19.37h388.97
					c10.7,0,19.37,8.67,19.37,19.37v30.85C434.34,2885.86,425.66,2894.53,414.97,2894.53z"/>
			</g>
			<g>
				<path class="st0" d="M427.42,2892.98H13.54c-7.82,0-14.16-6.34-14.16-14.16v-71.45c0-7.82,6.34-14.16,14.16-14.16h413.89
					c7.82,0,14.16,6.34,14.16,14.16v71.45C441.58,2886.64,435.24,2892.98,427.42,2892.98z"/>
				<path class="st1" d="M414.97,2852.36H25.99c-10.7,0-19.37-8.67-19.37-19.37v-30.85c0-10.7,8.67-19.37,19.37-19.37h388.97
					c10.7,0,19.37,8.67,19.37,19.37v30.85C434.34,2843.68,425.66,2852.36,414.97,2852.36z"/>
			</g>
			<g>
				<path class="st0" d="M428.42,2852.69H14.53c-7.82,0-14.16-6.34-14.16-14.16v-71.45c0-7.82,6.34-14.16,14.16-14.16h413.89
					c7.82,0,14.16,6.34,14.16,14.16v71.45C442.58,2846.35,436.24,2852.69,428.42,2852.69z"/>
				<path class="st1" d="M415.96,2812.06H26.99c-10.7,0-19.37-8.67-19.37-19.37v-30.85c0-10.7,8.67-19.37,19.37-19.37h388.97
					c10.7,0,19.37,8.67,19.37,19.37v30.85C435.33,2803.39,426.66,2812.06,415.96,2812.06z"/>
			</g>
			<g>
				<path class="st0" d="M428.42,2808.73H14.53c-7.82,0-14.16-6.34-14.16-14.16v-71.45c0-7.82,6.34-14.16,14.16-14.16h413.89
					c7.82,0,14.16,6.34,14.16,14.16v71.45C442.58,2802.39,436.24,2808.73,428.42,2808.73z"/>
				<path class="st1" d="M415.96,2768.1H26.99c-10.7,0-19.37-8.67-19.37-19.37v-30.85c0-10.7,8.67-19.37,19.37-19.37h388.97
					c10.7,0,19.37,8.67,19.37,19.37v30.85C435.33,2759.43,426.66,2768.1,415.96,2768.1z"/>
			</g>
		</g>
		<g>
			<g>
				<path class="st0" d="M428.25,2766.99H14.37c-7.82,0-14.16-6.34-14.16-14.16v-71.45c0-7.82,6.34-14.16,14.16-14.16h413.89
					c7.82,0,14.16,6.34,14.16,14.16v71.45C442.41,2760.65,436.07,2766.99,428.25,2766.99z"/>
				<path class="st1" d="M415.8,2726.36H26.82c-10.7,0-19.37-8.67-19.37-19.37v-30.85c0-10.7,8.67-19.37,19.37-19.37H415.8
					c10.7,0,19.37,8.67,19.37,19.37v30.85C435.17,2717.69,426.5,2726.36,415.8,2726.36z"/>
			</g>
			<g>
				<path class="st0" d="M427.26,2727.56H13.37c-7.82,0-14.16-6.34-14.16-14.16v-71.45c0-7.82,6.34-14.16,14.16-14.16h413.89
					c7.82,0,14.16,6.34,14.16,14.16v71.45C441.42,2721.22,435.08,2727.56,427.26,2727.56z"/>
				<path class="st1" d="M414.8,2686.93H25.83c-10.7,0-19.37-8.67-19.37-19.37v-30.85c0-10.7,8.67-19.37,19.37-19.37H414.8
					c10.7,0,19.37,8.67,19.37,19.37v30.85C434.17,2678.26,425.5,2686.93,414.8,2686.93z"/>
			</g>
			<g>
				<path class="st0" d="M427.92,2682.9H14.03c-7.82,0-14.16-6.34-14.16-14.16v-71.45c0-7.82,6.34-14.16,14.16-14.16h413.89
					c7.82,0,14.16,6.34,14.16,14.16v71.45C442.08,2676.56,435.74,2682.9,427.92,2682.9z"/>
				<path class="st1" d="M415.46,2642.27H26.49c-10.7,0-19.37-8.67-19.37-19.37v-30.85c0-10.7,8.67-19.37,19.37-19.37h388.97
					c10.7,0,19.37,8.67,19.37,19.37v30.85C434.84,2633.6,426.16,2642.27,415.46,2642.27z"/>
			</g>
			<g>
				<path class="st0" d="M428.25,2638.24H14.37c-7.82,0-14.16-6.34-14.16-14.16v-71.45c0-7.82,6.34-14.16,14.16-14.16h413.89
					c7.82,0,14.16,6.34,14.16,14.16v71.45C442.41,2631.9,436.07,2638.24,428.25,2638.24z"/>
				<path class="st1" d="M415.8,2597.61H26.82c-10.7,0-19.37-8.67-19.37-19.37v-30.85c0-10.7,8.67-19.37,19.37-19.37H415.8
					c10.7,0,19.37,8.67,19.37,19.37v30.85C435.17,2588.94,426.5,2597.61,415.8,2597.61z"/>
			</g>
			<g>
				<path class="st0" d="M427.26,2595.9H13.37c-7.82,0-14.16-6.34-14.16-14.16v-71.45c0-7.82,6.34-14.16,14.16-14.16h413.89
					c7.82,0,14.16,6.34,14.16,14.16v71.45C441.42,2589.57,435.08,2595.9,427.26,2595.9z"/>
				<path class="st1" d="M414.8,2555.28H25.83c-10.7,0-19.37-8.67-19.37-19.37v-30.85c0-10.7,8.67-19.37,19.37-19.37H414.8
					c10.7,0,19.37,8.67,19.37,19.37v30.85C434.17,2546.6,425.5,2555.28,414.8,2555.28z"/>
			</g>
			<g>
				<path class="st0" d="M427.26,2553.73H13.37c-7.82,0-14.16-6.34-14.16-14.16v-71.45c0-7.82,6.34-14.16,14.16-14.16h413.89
					c7.82,0,14.16,6.34,14.16,14.16v71.45C441.42,2547.39,435.08,2553.73,427.26,2553.73z"/>
				<path class="st1" d="M414.8,2513.1H25.83c-10.7,0-19.37-8.67-19.37-19.37v-30.85c0-10.7,8.67-19.37,19.37-19.37H414.8
					c10.7,0,19.37,8.67,19.37,19.37v30.85C434.17,2504.43,425.5,2513.1,414.8,2513.1z"/>
			</g>
			<g>
				<path class="st0" d="M428.25,2513.44H14.37c-7.82,0-14.16-6.34-14.16-14.16v-71.45c0-7.82,6.34-14.16,14.16-14.16h413.89
					c7.82,0,14.16,6.34,14.16,14.16v71.45C442.41,2507.1,436.07,2513.44,428.25,2513.44z"/>
				<path class="st1" d="M415.8,2472.81H26.82c-10.7,0-19.37-8.67-19.37-19.37v-30.85c0-10.7,8.67-19.37,19.37-19.37H415.8
					c10.7,0,19.37,8.67,19.37,19.37v30.85C435.17,2464.14,426.5,2472.81,415.8,2472.81z"/>
			</g>
			<g>
				<path class="st0" d="M428.25,2469.48H14.37c-7.82,0-14.16-6.34-14.16-14.16v-71.45c0-7.82,6.34-14.16,14.16-14.16h413.89
					c7.82,0,14.16,6.34,14.16,14.16v71.45C442.41,2463.14,436.07,2469.48,428.25,2469.48z"/>
				<path class="st1" d="M415.8,2428.85H26.82c-10.7,0-19.37-8.67-19.37-19.37v-30.85c0-10.7,8.67-19.37,19.37-19.37H415.8
					c10.7,0,19.37,8.67,19.37,19.37v30.85C435.17,2420.18,426.5,2428.85,415.8,2428.85z"/>
			</g>
		</g>
		<g>
			<path class="st0" d="M428.25,2425.42H14.37c-7.82,0-14.16-6.34-14.16-14.16v-71.45c0-7.82,6.34-14.16,14.16-14.16h413.89
				c7.82,0,14.16,6.34,14.16,14.16v71.45C442.41,2419.09,436.07,2425.42,428.25,2425.42z"/>
			<path class="st1" d="M415.8,2384.8H26.82c-10.7,0-19.37-8.67-19.37-19.37v-30.85c0-10.7,8.67-19.37,19.37-19.37H415.8
				c10.7,0,19.37,8.67,19.37,19.37v30.85C435.17,2376.12,426.5,2384.8,415.8,2384.8z"/>
		</g>
	</g>
	<g>
		<g>
			<g>
				<path class="st0" d="M428.84,2383.06H14.95c-7.82,0-14.16-6.34-14.16-14.16v-71.45c0-7.82,6.34-14.16,14.16-14.16h413.89
					c7.82,0,14.16,6.34,14.16,14.16v71.45C442.99,2376.72,436.66,2383.06,428.84,2383.06z"/>
				<path class="st1" d="M416.38,2342.43H27.41c-10.7,0-19.37-8.67-19.37-19.37v-30.85c0-10.7,8.67-19.37,19.37-19.37h388.97
					c10.7,0,19.37,8.67,19.37,19.37v30.85C435.75,2333.76,427.08,2342.43,416.38,2342.43z"/>
			</g>
			<g>
				<path class="st0" d="M427.84,2343.63H13.95c-7.82,0-14.16-6.34-14.16-14.16v-71.45c0-7.82,6.34-14.16,14.16-14.16h413.89
					c7.82,0,14.16,6.34,14.16,14.16v71.45C442,2337.29,435.66,2343.63,427.84,2343.63z"/>
				<path class="st1" d="M415.38,2303H26.41c-10.7,0-19.37-8.67-19.37-19.37v-30.85c0-10.7,8.67-19.37,19.37-19.37h388.97
					c10.7,0,19.37,8.67,19.37,19.37v30.85C434.75,2294.33,426.08,2303,415.38,2303z"/>
			</g>
			<g>
				<path class="st0" d="M428.5,2298.97H14.62c-7.82,0-14.16-6.34-14.16-14.16v-71.45c0-7.82,6.34-14.16,14.16-14.16H428.5
					c7.82,0,14.16,6.34,14.16,14.16v71.45C442.66,2292.63,436.32,2298.97,428.5,2298.97z"/>
				<path class="st1" d="M416.05,2258.34H27.07c-10.7,0-19.37-8.67-19.37-19.37v-30.85c0-10.7,8.67-19.37,19.37-19.37h388.97
					c10.7,0,19.37,8.67,19.37,19.37v30.85C435.42,2249.67,426.74,2258.34,416.05,2258.34z"/>
			</g>
			<g>
				<path class="st0" d="M428.84,2254.31H14.95c-7.82,0-14.16-6.34-14.16-14.16v-71.45c0-7.82,6.34-14.16,14.16-14.16h413.89
					c7.82,0,14.16,6.34,14.16,14.16v71.45C442.99,2247.97,436.66,2254.31,428.84,2254.31z"/>
				<path class="st1" d="M416.38,2213.68H27.41c-10.7,0-19.37-8.67-19.37-19.37v-30.85c0-10.7,8.67-19.37,19.37-19.37h388.97
					c10.7,0,19.37,8.67,19.37,19.37v30.85C435.75,2205.01,427.08,2213.68,416.38,2213.68z"/>
			</g>
			<g>
				<path class="st0" d="M427.84,2211.98H13.95c-7.82,0-14.16-6.34-14.16-14.16v-71.45c0-7.82,6.34-14.16,14.16-14.16h413.89
					c7.82,0,14.16,6.34,14.16,14.16v71.45C442,2205.64,435.66,2211.98,427.84,2211.98z"/>
				<path class="st1" d="M415.38,2171.35H26.41c-10.7,0-19.37-8.67-19.37-19.37v-30.85c0-10.7,8.67-19.37,19.37-19.37h388.97
					c10.7,0,19.37,8.67,19.37,19.37v30.85C434.75,2162.68,426.08,2171.35,415.38,2171.35z"/>
			</g>
			<g>
				<path class="st0" d="M427.84,2169.8H13.95c-7.82,0-14.16-6.34-14.16-14.16v-71.45c0-7.82,6.34-14.16,14.16-14.16h413.89
					c7.82,0,14.16,6.34,14.16,14.16v71.45C442,2163.46,435.66,2169.8,427.84,2169.8z"/>
				<path class="st1" d="M415.38,2129.17H26.41c-10.7,0-19.37-8.67-19.37-19.37v-30.85c0-10.7,8.67-19.37,19.37-19.37h388.97
					c10.7,0,19.37,8.67,19.37,19.37v30.85C434.75,2120.5,426.08,2129.17,415.38,2129.17z"/>
			</g>
			<g>
				<path class="st0" d="M428.84,2129.51H14.95c-7.82,0-14.16-6.34-14.16-14.16v-71.45c0-7.82,6.34-14.16,14.16-14.16h413.89
					c7.82,0,14.16,6.34,14.16,14.16v71.45C442.99,2123.17,436.66,2129.51,428.84,2129.51z"/>
				<path class="st1" d="M416.38,2088.88H27.41c-10.7,0-19.37-8.67-19.37-19.37v-30.85c0-10.7,8.67-19.37,19.37-19.37h388.97
					c10.7,0,19.37,8.67,19.37,19.37v30.85C435.75,2080.21,427.08,2088.88,416.38,2088.88z"/>
			</g>
			<g>
				<path class="st0" d="M428.84,2085.55H14.95c-7.82,0-14.16-6.34-14.16-14.16v-71.45c0-7.82,6.34-14.16,14.16-14.16h413.89
					c7.82,0,14.16,6.34,14.16,14.16v71.45C442.99,2079.21,436.66,2085.55,428.84,2085.55z"/>
				<path class="st1" d="M416.38,2044.92H27.41c-10.7,0-19.37-8.67-19.37-19.37v-30.85c0-10.7,8.67-19.37,19.37-19.37h388.97
					c10.7,0,19.37,8.67,19.37,19.37v30.85C435.75,2036.25,427.08,2044.92,416.38,2044.92z"/>
			</g>
		</g>
		<g>
			<g>
				<path class="st0" d="M428.67,2043.81H14.78c-7.82,0-14.16-6.34-14.16-14.16v-71.45c0-7.82,6.34-14.16,14.16-14.16h413.89
					c7.82,0,14.16,6.34,14.16,14.16v71.45C442.83,2037.47,436.49,2043.81,428.67,2043.81z"/>
				<path class="st1" d="M416.21,2003.18H27.24c-10.7,0-19.37-8.67-19.37-19.37v-30.85c0-10.7,8.67-19.37,19.37-19.37h388.97
					c10.7,0,19.37,8.67,19.37,19.37v30.85C435.58,1994.51,426.91,2003.18,416.21,2003.18z"/>
			</g>
			<g>
				<path class="st0" d="M427.67,2004.37H13.79c-7.82,0-14.16-6.34-14.16-14.16v-71.45c0-7.82,6.34-14.16,14.16-14.16h413.89
					c7.82,0,14.16,6.34,14.16,14.16v71.45C441.83,1998.04,435.49,2004.37,427.67,2004.37z"/>
				<path class="st1" d="M415.21,1963.75H26.24c-10.7,0-19.37-8.67-19.37-19.37v-30.85c0-10.7,8.67-19.37,19.37-19.37h388.97
					c10.7,0,19.37,8.67,19.37,19.37v30.85C434.59,1955.07,425.91,1963.75,415.21,1963.75z"/>
			</g>
			<g>
				<path class="st0" d="M428.34,1959.71H14.45c-7.82,0-14.16-6.34-14.16-14.16v-71.45c0-7.82,6.34-14.16,14.16-14.16h413.89
					c7.82,0,14.16,6.34,14.16,14.16v71.45C442.5,1953.38,436.16,1959.71,428.34,1959.71z"/>
				<path class="st1" d="M415.88,1919.09H26.91c-10.7,0-19.37-8.67-19.37-19.37v-30.85c0-10.7,8.67-19.37,19.37-19.37h388.97
					c10.7,0,19.37,8.67,19.37,19.37v30.85C435.25,1910.41,426.58,1919.09,415.88,1919.09z"/>
			</g>
			<g>
				<path class="st0" d="M428.67,1915.05H14.78c-7.82,0-14.16-6.34-14.16-14.16v-71.45c0-7.82,6.34-14.16,14.16-14.16h413.89
					c7.82,0,14.16,6.34,14.16,14.16v71.45C442.83,1908.72,436.49,1915.05,428.67,1915.05z"/>
				<path class="st1" d="M416.21,1874.43H27.24c-10.7,0-19.37-8.67-19.37-19.37v-30.85c0-10.7,8.67-19.37,19.37-19.37h388.97
					c10.7,0,19.37,8.67,19.37,19.37v30.85C435.58,1865.75,426.91,1874.43,416.21,1874.43z"/>
			</g>
			<g>
				<path class="st0" d="M427.67,1872.72H13.79c-7.82,0-14.16-6.34-14.16-14.16v-71.45c0-7.82,6.34-14.16,14.16-14.16h413.89
					c7.82,0,14.16,6.34,14.16,14.16v71.45C441.83,1866.38,435.49,1872.72,427.67,1872.72z"/>
				<path class="st1" d="M415.21,1832.1H26.24c-10.7,0-19.37-8.67-19.37-19.37v-30.85c0-10.7,8.67-19.37,19.37-19.37h388.97
					c10.7,0,19.37,8.67,19.37,19.37v30.85C434.59,1823.42,425.91,1832.1,415.21,1832.1z"/>
			</g>
			<g>
				<path class="st0" d="M427.67,1830.55H13.79c-7.82,0-14.16-6.34-14.16-14.16v-71.45c0-7.82,6.34-14.16,14.16-14.16h413.89
					c7.82,0,14.16,6.34,14.16,14.16v71.45C441.83,1824.21,435.49,1830.55,427.67,1830.55z"/>
				<path class="st1" d="M415.21,1789.92H26.24c-10.7,0-19.37-8.67-19.37-19.37v-30.85c0-10.7,8.67-19.37,19.37-19.37h388.97
					c10.7,0,19.37,8.67,19.37,19.37v30.85C434.59,1781.25,425.91,1789.92,415.21,1789.92z"/>
			</g>
			<g>
				<path class="st0" d="M428.67,1790.26H14.78c-7.82,0-14.16-6.34-14.16-14.16v-71.45c0-7.82,6.34-14.16,14.16-14.16h413.89
					c7.82,0,14.16,6.34,14.16,14.16v71.45C442.83,1783.92,436.49,1790.26,428.67,1790.26z"/>
				<path class="st1" d="M416.21,1749.63H27.24c-10.7,0-19.37-8.67-19.37-19.37v-30.85c0-10.7,8.67-19.37,19.37-19.37h388.97
					c10.7,0,19.37,8.67,19.37,19.37v30.85C435.58,1740.96,426.91,1749.63,416.21,1749.63z"/>
			</g>
			<g>
				<path class="st0" d="M428.67,1746.3H14.78c-7.82,0-14.16-6.34-14.16-14.16v-71.45c0-7.82,6.34-14.16,14.16-14.16h413.89
					c7.82,0,14.16,6.34,14.16,14.16v71.45C442.83,1739.96,436.49,1746.3,428.67,1746.3z"/>
				<path class="st1" d="M416.21,1705.67H27.24c-10.7,0-19.37-8.67-19.37-19.37v-30.85c0-10.7,8.67-19.37,19.37-19.37h388.97
					c10.7,0,19.37,8.67,19.37,19.37v30.85C435.58,1697,426.91,1705.67,416.21,1705.67z"/>
			</g>
		</g>
		<g>
			<path class="st0" d="M428.67,1702.24H14.78c-7.82,0-14.16-6.34-14.16-14.16v-71.45c0-7.82,6.34-14.16,14.16-14.16h413.89
				c7.82,0,14.16,6.34,14.16,14.16v71.45C442.83,1695.9,436.49,1702.24,428.67,1702.24z"/>
			<path class="st1" d="M416.21,1661.62H27.24c-10.7,0-19.37-8.67-19.37-19.37v-30.85c0-10.7,8.67-19.37,19.37-19.37h388.97
				c10.7,0,19.37,8.67,19.37,19.37v30.85C435.58,1652.94,426.91,1661.62,416.21,1661.62z"/>
		</g>
	</g>
</g>
<g>
	<g>
		<g>
			<g>
				<path class="st0" d="M428.3,1660.36H14.41c-7.82,0-14.16-6.34-14.16-14.16v-71.45c0-7.82,6.34-14.16,14.16-14.16H428.3
					c7.82,0,14.16,6.34,14.16,14.16v71.45C442.45,1654.02,436.11,1660.36,428.3,1660.36z"/>
				<path class="st1" d="M415.84,1619.73H26.87c-10.7,0-19.37-8.67-19.37-19.37v-30.85c0-10.7,8.67-19.37,19.37-19.37h388.97
					c10.7,0,19.37,8.67,19.37,19.37v30.85C435.21,1611.06,426.54,1619.73,415.84,1619.73z"/>
			</g>
			<g>
				<path class="st0" d="M427.3,1620.92H13.41c-7.82,0-14.16-6.34-14.16-14.16v-71.45c0-7.82,6.34-14.16,14.16-14.16H427.3
					c7.82,0,14.16,6.34,14.16,14.16v71.45C441.46,1614.58,435.12,1620.92,427.3,1620.92z"/>
				<path class="st1" d="M414.84,1580.3H25.87c-10.7,0-19.37-8.67-19.37-19.37v-30.85c0-10.7,8.67-19.37,19.37-19.37h388.97
					c10.7,0,19.37,8.67,19.37,19.37v30.85C434.21,1571.62,425.54,1580.3,414.84,1580.3z"/>
			</g>
			<g>
				<path class="st0" d="M427.96,1576.26H14.08c-7.82,0-14.16-6.34-14.16-14.16v-71.45c0-7.82,6.34-14.16,14.16-14.16h413.89
					c7.82,0,14.16,6.34,14.16,14.16v71.45C442.12,1569.92,435.78,1576.26,427.96,1576.26z"/>
				<path class="st1" d="M415.51,1535.64H26.53c-10.7,0-19.37-8.67-19.37-19.37v-30.85c0-10.7,8.67-19.37,19.37-19.37h388.97
					c10.7,0,19.37,8.67,19.37,19.37v30.85C434.88,1526.96,426.2,1535.64,415.51,1535.64z"/>
			</g>
			<g>
				<path class="st0" d="M428.3,1531.6H14.41c-7.82,0-14.16-6.34-14.16-14.16v-71.45c0-7.82,6.34-14.16,14.16-14.16H428.3
					c7.82,0,14.16,6.34,14.16,14.16v71.45C442.45,1525.26,436.11,1531.6,428.3,1531.6z"/>
				<path class="st1" d="M415.84,1490.98H26.87c-10.7,0-19.37-8.67-19.37-19.37v-30.85c0-10.7,8.67-19.37,19.37-19.37h388.97
					c10.7,0,19.37,8.67,19.37,19.37v30.85C435.21,1482.3,426.54,1490.98,415.84,1490.98z"/>
			</g>
			<g>
				<path class="st0" d="M427.3,1489.27H13.41c-7.82,0-14.16-6.34-14.16-14.16v-71.45c0-7.82,6.34-14.16,14.16-14.16H427.3
					c7.82,0,14.16,6.34,14.16,14.16v71.45C441.46,1482.93,435.12,1489.27,427.3,1489.27z"/>
				<path class="st1" d="M414.84,1448.64H25.87c-10.7,0-19.37-8.67-19.37-19.37v-30.85c0-10.7,8.67-19.37,19.37-19.37h388.97
					c10.7,0,19.37,8.67,19.37,19.37v30.85C434.21,1439.97,425.54,1448.64,414.84,1448.64z"/>
			</g>
			<g>
				<path class="st0" d="M427.3,1447.1H13.41c-7.82,0-14.16-6.34-14.16-14.16v-71.45c0-7.82,6.34-14.16,14.16-14.16H427.3
					c7.82,0,14.16,6.34,14.16,14.16v71.45C441.46,1440.76,435.12,1447.1,427.3,1447.1z"/>
				<path class="st1" d="M414.84,1406.47H25.87c-10.7,0-19.37-8.67-19.37-19.37v-30.85c0-10.7,8.67-19.37,19.37-19.37h388.97
					c10.7,0,19.37,8.67,19.37,19.37v30.85C434.21,1397.8,425.54,1406.47,414.84,1406.47z"/>
			</g>
			<g>
				<path class="st0" d="M428.3,1406.81H14.41c-7.82,0-14.16-6.34-14.16-14.16v-71.45c0-7.82,6.34-14.16,14.16-14.16H428.3
					c7.82,0,14.16,6.34,14.16,14.16v71.45C442.45,1400.47,436.11,1406.81,428.3,1406.81z"/>
				<path class="st1" d="M415.84,1366.18H26.87c-10.7,0-19.37-8.67-19.37-19.37v-30.85c0-10.7,8.67-19.37,19.37-19.37h388.97
					c10.7,0,19.37,8.67,19.37,19.37v30.85C435.21,1357.51,426.54,1366.18,415.84,1366.18z"/>
			</g>
			<g>
				<path class="st0" d="M428.3,1362.85H14.41c-7.82,0-14.16-6.34-14.16-14.16v-71.45c0-7.82,6.34-14.16,14.16-14.16H428.3
					c7.82,0,14.16,6.34,14.16,14.16v71.45C442.45,1356.51,436.11,1362.85,428.3,1362.85z"/>
				<path class="st1" d="M415.84,1322.22H26.87c-10.7,0-19.37-8.67-19.37-19.37V1272c0-10.7,8.67-19.37,19.37-19.37h388.97
					c10.7,0,19.37,8.67,19.37,19.37v30.85C435.21,1313.55,426.54,1322.22,415.84,1322.22z"/>
			</g>
		</g>
		<g>
			<g>
				<path class="st0" d="M428.13,1321.11H14.24c-7.82,0-14.16-6.34-14.16-14.16v-71.45c0-7.82,6.34-14.16,14.16-14.16h413.89
					c7.82,0,14.16,6.34,14.16,14.16v71.45C442.29,1314.77,435.95,1321.11,428.13,1321.11z"/>
				<path class="st1" d="M415.67,1280.48H26.7c-10.7,0-19.37-8.67-19.37-19.37v-30.85c0-10.7,8.67-19.37,19.37-19.37h388.97
					c10.7,0,19.37,8.67,19.37,19.37v30.85C435.04,1271.81,426.37,1280.48,415.67,1280.48z"/>
			</g>
			<g>
				<path class="st0" d="M427.13,1281.67H13.24c-7.82,0-14.16-6.34-14.16-14.16v-71.45c0-7.82,6.34-14.16,14.16-14.16h413.89
					c7.82,0,14.16,6.34,14.16,14.16v71.45C441.29,1275.33,434.95,1281.67,427.13,1281.67z"/>
				<path class="st1" d="M414.67,1241.04H25.7c-10.7,0-19.37-8.67-19.37-19.37v-30.85c0-10.7,8.67-19.37,19.37-19.37h388.97
					c10.7,0,19.37,8.67,19.37,19.37v30.85C434.05,1232.37,425.37,1241.04,414.67,1241.04z"/>
			</g>
			<g>
				<path class="st0" d="M427.8,1237.01H13.91c-7.82,0-14.16-6.34-14.16-14.16v-71.45c0-7.82,6.34-14.16,14.16-14.16H427.8
					c7.82,0,14.16,6.34,14.16,14.16v71.45C441.96,1230.67,435.62,1237.01,427.8,1237.01z"/>
				<path class="st1" d="M415.34,1196.38H26.37c-10.7,0-19.37-8.67-19.37-19.37v-30.85c0-10.7,8.67-19.37,19.37-19.37h388.97
					c10.7,0,19.37,8.67,19.37,19.37v30.85C434.71,1187.71,426.04,1196.38,415.34,1196.38z"/>
			</g>
			<g>
				<path class="st0" d="M428.13,1192.35H14.24c-7.82,0-14.16-6.34-14.16-14.16v-71.45c0-7.82,6.34-14.16,14.16-14.16h413.89
					c7.82,0,14.16,6.34,14.16,14.16v71.45C442.29,1186.01,435.95,1192.35,428.13,1192.35z"/>
				<path class="st1" d="M415.67,1151.72H26.7c-10.7,0-19.37-8.67-19.37-19.37v-30.85c0-10.7,8.67-19.37,19.37-19.37h388.97
					c10.7,0,19.37,8.67,19.37,19.37v30.85C435.04,1143.05,426.37,1151.72,415.67,1151.72z"/>
			</g>
			<g>
				<path class="st0" d="M427.13,1150.02H13.24c-7.82,0-14.16-6.34-14.16-14.16v-71.45c0-7.82,6.34-14.16,14.16-14.16h413.89
					c7.82,0,14.16,6.34,14.16,14.16v71.45C441.29,1143.68,434.95,1150.02,427.13,1150.02z"/>
				<path class="st1" d="M414.67,1109.39H25.7c-10.7,0-19.37-8.67-19.37-19.37v-30.85c0-10.7,8.67-19.37,19.37-19.37h388.97
					c10.7,0,19.37,8.67,19.37,19.37v30.85C434.05,1100.72,425.37,1109.39,414.67,1109.39z"/>
			</g>
			<g>
				<path class="st0" d="M427.13,1107.85H13.24c-7.82,0-14.16-6.34-14.16-14.16v-71.45c0-7.82,6.34-14.16,14.16-14.16h413.89
					c7.82,0,14.16,6.34,14.16,14.16v71.45C441.29,1101.51,434.95,1107.85,427.13,1107.85z"/>
				<path class="st1" d="M414.67,1067.22H25.7c-10.7,0-19.37-8.67-19.37-19.37V1017c0-10.7,8.67-19.37,19.37-19.37h388.97
					c10.7,0,19.37,8.67,19.37,19.37v30.85C434.05,1058.55,425.37,1067.22,414.67,1067.22z"/>
			</g>
			<g>
				<path class="st0" d="M428.13,1067.55H14.24c-7.82,0-14.16-6.34-14.16-14.16v-71.45c0-7.82,6.34-14.16,14.16-14.16h413.89
					c7.82,0,14.16,6.34,14.16,14.16v71.45C442.29,1061.21,435.95,1067.55,428.13,1067.55z"/>
				<path class="st1" d="M415.67,1026.93H26.7c-10.7,0-19.37-8.67-19.37-19.37v-30.85c0-10.7,8.67-19.37,19.37-19.37h388.97
					c10.7,0,19.37,8.67,19.37,19.37v30.85C435.04,1018.25,426.37,1026.93,415.67,1026.93z"/>
			</g>
			<g>
				<path class="st0" d="M428.13,1023.59H14.24c-7.82,0-14.16-6.34-14.16-14.16v-71.45c0-7.82,6.34-14.16,14.16-14.16h413.89
					c7.82,0,14.16,6.34,14.16,14.16v71.45C442.29,1017.25,435.95,1023.59,428.13,1023.59z"/>
				<path class="st1" d="M415.67,982.97H26.7c-10.7,0-19.37-8.67-19.37-19.37v-30.85c0-10.7,8.67-19.37,19.37-19.37h388.97
					c10.7,0,19.37,8.67,19.37,19.37v30.85C435.04,974.29,426.37,982.97,415.67,982.97z"/>
			</g>
		</g>
		<g>
			<path class="st0" d="M428.13,979.54H14.24c-7.82,0-14.16-6.34-14.16-14.16v-71.45c0-7.82,6.34-14.16,14.16-14.16h413.89
				c7.82,0,14.16,6.34,14.16,14.16v71.45C442.29,973.2,435.95,979.54,428.13,979.54z"/>
			<path class="st1" d="M415.67,938.91H26.7c-10.7,0-19.37-8.67-19.37-19.37v-30.85c0-10.7,8.67-19.37,19.37-19.37h388.97
				c10.7,0,19.37,8.67,19.37,19.37v30.85C435.04,930.24,426.37,938.91,415.67,938.91z"/>
		</g>
	</g>
	<g>
		<g>
			<g>
				<path class="st0" d="M428.71,937.18H14.82c-7.82,0-14.16-6.34-14.16-14.16v-71.45c0-7.82,6.34-14.16,14.16-14.16h413.89
					c7.82,0,14.16,6.34,14.16,14.16v71.45C442.87,930.84,436.53,937.18,428.71,937.18z"/>
				<path class="st1" d="M416.25,896.55H27.28c-10.7,0-19.37-8.67-19.37-19.37v-30.85c0-10.7,8.67-19.37,19.37-19.37h388.97
					c10.7,0,19.37,8.67,19.37,19.37v30.85C435.63,887.88,426.95,896.55,416.25,896.55z"/>
			</g>
			<g>
				<path class="st0" d="M427.71,897.74H13.83c-7.82,0-14.16-6.34-14.16-14.16v-71.45c0-7.82,6.34-14.16,14.16-14.16h413.89
					c7.82,0,14.16,6.34,14.16,14.16v71.45C441.87,891.4,435.53,897.74,427.71,897.74z"/>
				<path class="st1" d="M415.26,857.11H26.28c-10.7,0-19.37-8.67-19.37-19.37V806.9c0-10.7,8.67-19.37,19.37-19.37h388.97
					c10.7,0,19.37,8.67,19.37,19.37v30.85C434.63,848.44,425.95,857.11,415.26,857.11z"/>
			</g>
			<g>
				<path class="st0" d="M428.38,853.08H14.49c-7.82,0-14.16-6.34-14.16-14.16v-71.45c0-7.82,6.34-14.16,14.16-14.16h413.89
					c7.82,0,14.16,6.34,14.16,14.16v71.45C442.54,846.74,436.2,853.08,428.38,853.08z"/>
				<path class="st1" d="M415.92,812.45H26.95c-10.7,0-19.37-8.67-19.37-19.37v-30.85c0-10.7,8.67-19.37,19.37-19.37h388.97
					c10.7,0,19.37,8.67,19.37,19.37v30.85C435.29,803.78,426.62,812.45,415.92,812.45z"/>
			</g>
			<g>
				<path class="st0" d="M428.71,808.42H14.82c-7.82,0-14.16-6.34-14.16-14.16v-71.45c0-7.82,6.34-14.16,14.16-14.16h413.89
					c7.82,0,14.16,6.34,14.16,14.16v71.45C442.87,802.08,436.53,808.42,428.71,808.42z"/>
				<path class="st1" d="M416.25,767.79H27.28c-10.7,0-19.37-8.67-19.37-19.37v-30.85c0-10.7,8.67-19.37,19.37-19.37h388.97
					c10.7,0,19.37,8.67,19.37,19.37v30.85C435.63,759.12,426.95,767.79,416.25,767.79z"/>
			</g>
			<g>
				<path class="st0" d="M427.71,766.09H13.83c-7.82,0-14.16-6.34-14.16-14.16v-71.45c0-7.82,6.34-14.16,14.16-14.16h413.89
					c7.82,0,14.16,6.34,14.16,14.16v71.45C441.87,759.75,435.53,766.09,427.71,766.09z"/>
				<path class="st1" d="M415.26,725.46H26.28c-10.7,0-19.37-8.67-19.37-19.37v-30.85c0-10.7,8.67-19.37,19.37-19.37h388.97
					c10.7,0,19.37,8.67,19.37,19.37v30.85C434.63,716.79,425.95,725.46,415.26,725.46z"/>
			</g>
			<g>
				<path class="st0" d="M427.71,723.92H13.83c-7.82,0-14.16-6.34-14.16-14.16v-71.45c0-7.82,6.34-14.16,14.16-14.16h413.89
					c7.82,0,14.16,6.34,14.16,14.16v71.45C441.87,717.58,435.53,723.92,427.71,723.92z"/>
				<path class="st1" d="M415.26,683.29H26.28c-10.7,0-19.37-8.67-19.37-19.37v-30.85c0-10.7,8.67-19.37,19.37-19.37h388.97
					c10.7,0,19.37,8.67,19.37,19.37v30.85C434.63,674.62,425.95,683.29,415.26,683.29z"/>
			</g>
			<g>
				<path class="st0" d="M428.71,683.62H14.82c-7.82,0-14.16-6.34-14.16-14.16v-71.45c0-7.82,6.34-14.16,14.16-14.16h413.89
					c7.82,0,14.16,6.34,14.16,14.16v71.45C442.87,677.29,436.53,683.62,428.71,683.62z"/>
				<path class="st1" d="M416.25,643H27.28c-10.7,0-19.37-8.67-19.37-19.37v-30.85c0-10.7,8.67-19.37,19.37-19.37h388.97
					c10.7,0,19.37,8.67,19.37,19.37v30.85C435.63,634.32,426.95,643,416.25,643z"/>
			</g>
			<g>
				<path class="st0" d="M428.71,639.66H14.82c-7.82,0-14.16-6.34-14.16-14.16v-71.45c0-7.82,6.34-14.16,14.16-14.16h413.89
					c7.82,0,14.16,6.34,14.16,14.16v71.45C442.87,633.32,436.53,639.66,428.71,639.66z"/>
				<path class="st1" d="M416.25,599.04H27.28c-10.7,0-19.37-8.67-19.37-19.37v-30.85c0-10.7,8.67-19.37,19.37-19.37h388.97
					c10.7,0,19.37,8.67,19.37,19.37v30.85C435.63,590.36,426.95,599.04,416.25,599.04z"/>
			</g>
		</g>
		<g>
			<g>
				<path class="st0" d="M428.54,597.93H14.66c-7.82,0-14.16-6.34-14.16-14.16v-71.45c0-7.82,6.34-14.16,14.16-14.16h413.89
					c7.82,0,14.16,6.34,14.16,14.16v71.45C442.7,591.59,436.36,597.93,428.54,597.93z"/>
				<path class="st1" d="M416.09,557.3H27.11c-10.7,0-19.37-8.67-19.37-19.37v-30.85c0-10.7,8.67-19.37,19.37-19.37h388.97
					c10.7,0,19.37,8.67,19.37,19.37v30.85C435.46,548.63,426.79,557.3,416.09,557.3z"/>
			</g>
			<g>
				<path class="st0" d="M427.55,558.49H13.66c-7.82,0-14.16-6.34-14.16-14.16v-71.45c0-7.82,6.34-14.16,14.16-14.16h413.89
					c7.82,0,14.16,6.34,14.16,14.16v71.45C441.71,552.15,435.37,558.49,427.55,558.49z"/>
				<path class="st1" d="M415.09,517.86H26.12c-10.7,0-19.37-8.67-19.37-19.37v-30.85c0-10.7,8.67-19.37,19.37-19.37h388.97
					c10.7,0,19.37,8.67,19.37,19.37v30.85C434.46,509.19,425.79,517.86,415.09,517.86z"/>
			</g>
			<g>
				<path class="st0" d="M428.21,513.83H14.33c-7.82,0-14.16-6.34-14.16-14.16v-71.45c0-7.82,6.34-14.16,14.16-14.16h413.89
					c7.82,0,14.16,6.34,14.16,14.16v71.45C442.37,507.49,436.03,513.83,428.21,513.83z"/>
				<path class="st1" d="M415.76,473.2H26.78c-10.7,0-19.37-8.67-19.37-19.37v-30.85c0-10.7,8.67-19.37,19.37-19.37h388.97
					c10.7,0,19.37,8.67,19.37,19.37v30.85C435.13,464.53,426.45,473.2,415.76,473.2z"/>
			</g>
			<g>
				<path class="st0" d="M428.54,469.17H14.66c-7.82,0-14.16-6.34-14.16-14.16v-71.45c0-7.82,6.34-14.16,14.16-14.16h413.89
					c7.82,0,14.16,6.34,14.16,14.16v71.45C442.7,462.83,436.36,469.17,428.54,469.17z"/>
				<path class="st1" d="M416.09,428.54H27.11c-10.7,0-19.37-8.67-19.37-19.37v-30.85c0-10.7,8.67-19.37,19.37-19.37h388.97
					c10.7,0,19.37,8.67,19.37,19.37v30.85C435.46,419.87,426.79,428.54,416.09,428.54z"/>
			</g>
			<g>
				<path class="st0" d="M427.55,426.84H13.66c-7.82,0-14.16-6.34-14.16-14.16v-71.45c0-7.82,6.34-14.16,14.16-14.16h413.89
					c7.82,0,14.16,6.34,14.16,14.16v71.45C441.71,420.5,435.37,426.84,427.55,426.84z"/>
				<path class="st1" d="M415.09,386.21H26.12c-10.7,0-19.37-8.67-19.37-19.37v-30.85c0-10.7,8.67-19.37,19.37-19.37h388.97
					c10.7,0,19.37,8.67,19.37,19.37v30.85C434.46,377.54,425.79,386.21,415.09,386.21z"/>
			</g>
			<g>
				<path class="st0" d="M427.55,384.67H13.66c-7.82,0-14.16-6.34-14.16-14.16v-71.45c0-7.82,6.34-14.16,14.16-14.16h413.89
					c7.82,0,14.16,6.34,14.16,14.16v71.45C441.71,378.33,435.37,384.67,427.55,384.67z"/>
				<path class="st1" d="M415.09,344.04H26.12c-10.7,0-19.37-8.67-19.37-19.37v-30.85c0-10.7,8.67-19.37,19.37-19.37h388.97
					c10.7,0,19.37,8.67,19.37,19.37v30.85C434.46,335.37,425.79,344.04,415.09,344.04z"/>
			</g>
			<g>
				<path class="st0" d="M428.54,344.37H14.66c-7.82,0-14.16-6.34-14.16-14.16v-71.45c0-7.82,6.34-14.16,14.16-14.16h413.89
					c7.82,0,14.16,6.34,14.16,14.16v71.45C442.7,338.03,436.36,344.37,428.54,344.37z"/>
				<path class="st1" d="M416.09,303.75H27.11c-10.7,0-19.37-8.67-19.37-19.37v-30.85c0-10.7,8.67-19.37,19.37-19.37h388.97
					c10.7,0,19.37,8.67,19.37,19.37v30.85C435.46,295.07,426.79,303.75,416.09,303.75z"/>
			</g>
			<g>
				<path class="st0" d="M428.54,300.41H14.66c-7.82,0-14.16-6.34-14.16-14.16V214.8c0-7.82,6.34-14.16,14.16-14.16h413.89
					c7.82,0,14.16,6.34,14.16,14.16v71.45C442.7,294.07,436.36,300.41,428.54,300.41z"/>
				<path class="st1" d="M416.09,259.78H27.11c-10.7,0-19.37-8.67-19.37-19.37v-30.85c0-10.7,8.67-19.37,19.37-19.37h388.97
					c10.7,0,19.37,8.67,19.37,19.37v30.85C435.46,251.11,426.79,259.78,416.09,259.78z"/>
			</g>
		</g>
		<g>
			<path class="st0" d="M428.54,256.36H14.66c-7.82,0-14.16-6.34-14.16-14.16v-71.45c0-7.82,6.34-14.16,14.16-14.16h413.89
				c7.82,0,14.16,6.34,14.16,14.16v71.45C442.7,250.02,436.36,256.36,428.54,256.36z"/>
			<path class="st1" d="M416.09,215.73H27.11c-10.7,0-19.37-8.67-19.37-19.37v-30.85c0-10.7,8.67-19.37,19.37-19.37h388.97
				c10.7,0,19.37,8.67,19.37,19.37v30.85C435.46,207.06,426.79,215.73,416.09,215.73z"/>
		</g>
	</g>
</g>
<g>
	<path class="st0" d="M428.54,215.36H14.66c-7.82,0-14.16-6.34-14.16-14.16V86.4c0-7.82,6.34-14.16,14.16-14.16h413.89
		c7.82,0,14.16,6.34,14.16,14.16v114.8C442.7,209.02,436.36,215.36,428.54,215.36z"/>
	<g>
		<path class="st1" d="M416.09,174.73H27.11c-10.7,0-19.37-8.67-19.37-19.37V26.47c0-10.7,8.67-19.37,19.37-19.37h388.97
			c10.7,0,19.37,8.67,19.37,19.37v128.89C435.46,166.06,426.79,174.73,416.09,174.73z"/>
		<path class="st2" d="M52.15,174.73H17.37c-5.32,0-9.63-4.31-9.63-9.63v-32.45c0-5.32,4.31-9.63,9.63-9.63h34.78
			c5.32,0,9.63,4.31,9.63,9.63v32.45C61.78,170.42,57.47,174.73,52.15,174.73z"/>
		<path class="st2" d="M52.15,53.14H17.37c-5.32,0-9.63-4.31-9.63-9.63V16.73c0-5.32,4.31-9.63,9.63-9.63h34.78
			c5.32,0,9.63,4.31,9.63,9.63v26.78C61.78,48.83,57.47,53.14,52.15,53.14z"/>
		<path class="st2" d="M425.83,53.14h-34.99c-5.32,0-9.63-4.31-9.63-9.63V16.73c0-5.32,4.31-9.63,9.63-9.63h34.99
			c5.32,0,9.63,4.31,9.63,9.63v26.78C435.46,48.83,431.15,53.14,425.83,53.14z"/>
		<path class="st2" d="M425.83,174.73h-34.99c-5.32,0-9.63-4.31-9.63-9.63v-32.45c0-5.32,4.31-9.63,9.63-9.63h34.99
			c5.32,0,9.63,4.31,9.63,9.63v32.45C435.46,170.42,431.15,174.73,425.83,174.73z"/>
		<ellipse class="st2" cx="221.6" cy="90.91" rx="58.44" ry="50.03"/>
	</g>
	<rect x="57.55" y="163.55" class="st3" width="335.45" height="6.21"/>
</g>
</svg>
