<?xml version="1.0" encoding="utf-8"?>
<!-- Generator: Adobe Illustrator 28.0.0, SVG Export Plug-In . SVG Version: 6.00 Build 0)  -->
<svg version="1.1" id="Layer_1" xmlns="http://www.w3.org/2000/svg" xmlns:xlink="http://www.w3.org/1999/xlink" x="0px" y="0px"
	 viewBox="0 0 442.2 598.11" style="enable-background:new 0 0 442.2 598.11;" xml:space="preserve">
<style type="text/css">
	.st0{fill:#008741;}
	.st1{fill:#00A651;stroke:#009444;stroke-width:14;stroke-miterlimit:10;}
	.st2{fill:#009444;}
	.st3{fill:#009444;stroke:#009444;stroke-width:10;stroke-miterlimit:10;}
</style>
<g>
	<path class="st0" d="M428.38,598.11H14.49c-7.82,0-14.16-6.34-14.16-14.16V512.5c0-7.82,6.34-14.16,14.16-14.16h413.89
		c7.82,0,14.16,6.34,14.16,14.16v71.45C442.54,591.77,436.2,598.11,428.38,598.11z"/>
	<path class="st1" d="M415.92,557.48H26.95c-10.7,0-19.37-8.67-19.37-19.37v-30.85c0-10.7,8.67-19.37,19.37-19.37h388.97
		c10.7,0,19.37,8.67,19.37,19.37v30.85C435.29,548.81,426.62,557.48,415.92,557.48z"/>
</g>
<g>
	<path class="st0" d="M427.38,558.67H13.49c-7.82,0-14.16-6.34-14.16-14.16v-71.45c0-7.82,6.34-14.16,14.16-14.16h413.89
		c7.82,0,14.16,6.34,14.16,14.16v71.45C441.54,552.34,435.2,558.67,427.38,558.67z"/>
	<path class="st1" d="M414.92,518.05H25.95c-10.7,0-19.37-8.67-19.37-19.37v-30.85c0-10.7,8.67-19.37,19.37-19.37h388.97
		c10.7,0,19.37,8.67,19.37,19.37v30.85C434.3,509.37,425.62,518.05,414.92,518.05z"/>
</g>
<g>
	<path class="st0" d="M428.05,514.01H14.16C6.34,514.01,0,507.68,0,499.86v-71.45c0-7.82,6.34-14.16,14.16-14.16h413.89
		c7.82,0,14.16,6.34,14.16,14.16v71.45C442.2,507.68,435.87,514.01,428.05,514.01z"/>
	<path class="st1" d="M415.59,473.39H26.62c-10.7,0-19.37-8.67-19.37-19.37v-30.85c0-10.7,8.67-19.37,19.37-19.37h388.97
		c10.7,0,19.37,8.67,19.37,19.37v30.85C434.96,464.71,426.29,473.39,415.59,473.39z"/>
</g>
<g>
	<path class="st0" d="M428.38,469.35H14.49c-7.82,0-14.16-6.34-14.16-14.16v-71.45c0-7.82,6.34-14.16,14.16-14.16h413.89
		c7.82,0,14.16,6.34,14.16,14.16v71.45C442.54,463.02,436.2,469.35,428.38,469.35z"/>
	<path class="st1" d="M415.92,428.73H26.95c-10.7,0-19.37-8.67-19.37-19.37v-30.85c0-10.7,8.67-19.37,19.37-19.37h388.97
		c10.7,0,19.37,8.67,19.37,19.37v30.85C435.29,420.05,426.62,428.73,415.92,428.73z"/>
</g>
<g>
	<path class="st0" d="M427.38,427.02H13.49c-7.82,0-14.16-6.34-14.16-14.16v-71.45c0-7.82,6.34-14.16,14.16-14.16h413.89
		c7.82,0,14.16,6.34,14.16,14.16v71.45C441.54,420.68,435.2,427.02,427.38,427.02z"/>
	<path class="st1" d="M414.92,386.4H25.95c-10.7,0-19.37-8.67-19.37-19.37v-30.85c0-10.7,8.67-19.37,19.37-19.37h388.97
		c10.7,0,19.37,8.67,19.37,19.37v30.85C434.3,377.72,425.62,386.4,414.92,386.4z"/>
</g>
<g>
	<path class="st0" d="M427.38,384.85H13.49c-7.82,0-14.16-6.34-14.16-14.16v-71.45c0-7.82,6.34-14.16,14.16-14.16h413.89
		c7.82,0,14.16,6.34,14.16,14.16v71.45C441.54,378.51,435.2,384.85,427.38,384.85z"/>
	<path class="st1" d="M414.92,344.22H25.95c-10.7,0-19.37-8.67-19.37-19.37v-30.85c0-10.7,8.67-19.37,19.37-19.37h388.97
		c10.7,0,19.37,8.67,19.37,19.37v30.85C434.3,335.55,425.62,344.22,414.92,344.22z"/>
</g>
<g>
	<path class="st0" d="M428.38,344.56H14.49c-7.82,0-14.16-6.34-14.16-14.16v-71.45c0-7.82,6.34-14.16,14.16-14.16h413.89
		c7.82,0,14.16,6.34,14.16,14.16v71.45C442.54,338.22,436.2,344.56,428.38,344.56z"/>
	<path class="st1" d="M415.92,303.93H26.95c-10.7,0-19.37-8.67-19.37-19.37v-30.85c0-10.7,8.67-19.37,19.37-19.37h388.97
		c10.7,0,19.37,8.67,19.37,19.37v30.85C435.29,295.26,426.62,303.93,415.92,303.93z"/>
</g>
<g>
	<path class="st0" d="M428.38,300.6H14.49c-7.82,0-14.16-6.34-14.16-14.16v-71.45c0-7.82,6.34-14.16,14.16-14.16h413.89
		c7.82,0,14.16,6.34,14.16,14.16v71.45C442.54,294.26,436.2,300.6,428.38,300.6z"/>
	<path class="st1" d="M415.92,259.97H26.95c-10.7,0-19.37-8.67-19.37-19.37v-30.85c0-10.7,8.67-19.37,19.37-19.37h388.97
		c10.7,0,19.37,8.67,19.37,19.37v30.85C435.29,251.3,426.62,259.97,415.92,259.97z"/>
</g>
<g>
	<path class="st0" d="M428.38,256.54H14.49c-7.82,0-14.16-6.34-14.16-14.16v-71.45c0-7.82,6.34-14.16,14.16-14.16h413.89
		c7.82,0,14.16,6.34,14.16,14.16v71.45C442.54,250.2,436.2,256.54,428.38,256.54z"/>
	<path class="st1" d="M415.92,215.92H26.95c-10.7,0-19.37-8.67-19.37-19.37V165.7c0-10.7,8.67-19.37,19.37-19.37h388.97
		c10.7,0,19.37,8.67,19.37,19.37v30.85C435.29,207.24,426.62,215.92,415.92,215.92z"/>
</g>
<g>
	<path class="st0" d="M428.38,215.54H14.49c-7.82,0-14.16-6.34-14.16-14.16V86.58c0-7.82,6.34-14.16,14.16-14.16h413.89
		c7.82,0,14.16,6.34,14.16,14.16v114.8C442.54,209.2,436.2,215.54,428.38,215.54z"/>
	<g>
		<path class="st1" d="M415.92,174.92H26.95c-10.7,0-19.37-8.67-19.37-19.37V26.65c0-10.7,8.67-19.37,19.37-19.37h388.97
			c10.7,0,19.37,8.67,19.37,19.37v128.89C435.29,166.24,426.62,174.92,415.92,174.92z"/>
		<path class="st2" d="M51.98,174.92H17.21c-5.32,0-9.63-4.31-9.63-9.63v-32.45c0-5.32,4.31-9.63,9.63-9.63h34.78
			c5.32,0,9.63,4.31,9.63,9.63v32.45C61.61,170.6,57.3,174.92,51.98,174.92z"/>
		<path class="st2" d="M51.98,53.33H17.21c-5.32,0-9.63-4.31-9.63-9.63V16.91c0-5.32,4.31-9.63,9.63-9.63h34.78
			c5.32,0,9.63,4.31,9.63,9.63V43.7C61.61,49.02,57.3,53.33,51.98,53.33z"/>
		<path class="st2" d="M425.66,53.33h-34.99c-5.32,0-9.63-4.31-9.63-9.63V16.91c0-5.32,4.31-9.63,9.63-9.63h34.99
			c5.32,0,9.63,4.31,9.63,9.63V43.7C435.29,49.02,430.98,53.33,425.66,53.33z"/>
		<path class="st2" d="M425.66,174.92h-34.99c-5.32,0-9.63-4.31-9.63-9.63v-32.45c0-5.32,4.31-9.63,9.63-9.63h34.99
			c5.32,0,9.63,4.31,9.63,9.63v32.45C435.29,170.6,430.98,174.92,425.66,174.92z"/>
		<ellipse class="st2" cx="221.43" cy="91.1" rx="58.44" ry="50.03"/>
	</g>
	<rect x="57.38" y="163.73" class="st3" width="335.45" height="6.21"/>
</g>
</svg>
