<?xml version="1.0" encoding="utf-8"?>
<!-- Generator: Adobe Illustrator 28.0.0, SVG Export Plug-In . SVG Version: 6.00 Build 0)  -->
<svg version="1.1" id="Layer_1" xmlns="http://www.w3.org/2000/svg" xmlns:xlink="http://www.w3.org/1999/xlink" x="0px" y="0px"
	 viewBox="0 0 442.2 215.43" style="enable-background:new 0 0 442.2 215.43;" xml:space="preserve">
<style type="text/css">
	.st0{fill:#008741;}
	.st1{fill:#00A651;stroke:#009444;stroke-width:14;stroke-miterlimit:10;}
	.st2{fill:#009444;}
	.st3{fill:#009444;stroke:#009444;stroke-width:10;stroke-miterlimit:10;}
</style>
<path class="st0" d="M428.05,215.43H14.16C6.34,215.43,0,209.09,0,201.27V86.47c0-7.82,6.34-14.16,14.16-14.16h413.89
	c7.82,0,14.16,6.34,14.16,14.16v114.8C442.2,209.09,435.87,215.43,428.05,215.43z"/>
<g>
	<path class="st1" d="M415.59,174.81H26.62c-10.7,0-19.37-8.67-19.37-19.37V26.54c0-10.7,8.67-19.37,19.37-19.37h388.97
		c10.7,0,19.37,8.67,19.37,19.37v128.89C434.96,166.13,426.29,174.81,415.59,174.81z"/>
	<path class="st2" d="M51.65,174.81H16.87c-5.32,0-9.63-4.31-9.63-9.63v-32.45c0-5.32,4.31-9.63,9.63-9.63h34.78
		c5.32,0,9.63,4.31,9.63,9.63v32.45C61.28,170.49,56.97,174.81,51.65,174.81z"/>
	<path class="st2" d="M51.65,53.22H16.87c-5.32,0-9.63-4.31-9.63-9.63V16.8c0-5.32,4.31-9.63,9.63-9.63h34.78
		c5.32,0,9.63,4.31,9.63,9.63v26.78C61.28,48.91,56.97,53.22,51.65,53.22z"/>
	<path class="st2" d="M425.33,53.22h-34.99c-5.32,0-9.63-4.31-9.63-9.63V16.8c0-5.32,4.31-9.63,9.63-9.63h34.99
		c5.32,0,9.63,4.31,9.63,9.63v26.78C434.96,48.91,430.65,53.22,425.33,53.22z"/>
	<path class="st2" d="M425.33,174.81h-34.99c-5.32,0-9.63-4.31-9.63-9.63v-32.45c0-5.32,4.31-9.63,9.63-9.63h34.99
		c5.32,0,9.63,4.31,9.63,9.63v32.45C434.96,170.49,430.65,174.81,425.33,174.81z"/>
	<ellipse class="st2" cx="221.1" cy="90.99" rx="58.44" ry="50.03"/>
</g>
<rect x="57.05" y="163.62" class="st3" width="335.45" height="6.21"/>
</svg>
