<?xml version="1.0" encoding="utf-8"?>
<!-- Generator: Adobe Illustrator 28.0.0, SVG Export Plug-In . SVG Version: 6.00 Build 0)  -->
<svg version="1.1" id="Layer_1" xmlns="http://www.w3.org/2000/svg" xmlns:xlink="http://www.w3.org/1999/xlink" x="0px" y="0px"
	 viewBox="0 0 1330 1080" style="enable-background:new 0 0 1330 1080;" xml:space="preserve">
<style type="text/css">
	.st0{fill:#002A0E;}
	.st1{fill:#008741;}
	.st2{fill:#00A651;stroke:#009444;stroke-width:14;stroke-miterlimit:10;}
	.st3{fill:#009444;}
	.st4{fill:#009444;stroke:#009444;stroke-width:10;stroke-miterlimit:10;}
	.st5{fill:url(#SVGID_1_);stroke:#00A79D;stroke-width:20;stroke-miterlimit:10;}
	.st6{fill:url(#SVGID_00000115510870709159165260000000258461089960156842_);stroke:#006C94;stroke-width:20;stroke-miterlimit:10;}
	.st7{fill:url(#SVGID_00000054259329997753707240000017600197836475344519_);stroke:#00A79D;stroke-width:20;stroke-miterlimit:10;}
	.st8{fill:url(#SVGID_00000076584190798194078790000009771443297416896151_);stroke:#00A79D;stroke-width:20;stroke-miterlimit:10;}
	.st9{fill:url(#SVGID_00000170978742329826753960000013631552235945627543_);stroke:#00A79D;stroke-width:20;stroke-miterlimit:10;}
	
		.st10{fill:url(#SVGID_00000014611237788426035920000013491748303885483945_);stroke:#006C94;stroke-width:14;stroke-miterlimit:10;}
</style>
<g>
	<path class="st0" d="M1333.55,489.97c-46.12-42.53-119.91-99.16-223.82-133.35c-107.03-35.21-143.32-12.83-241.3-34.4
		c-191.73-42.19-191.47-158.4-398.47-241.96C287.55,6.63,105,23.25,96.11,52.69c-7.44,24.63,109.16,50.2,127.27,135.58
		c10.11,47.67-21.49,62.14-25.96,120.05c-8.46,109.59,98.73,135.26,104.37,233.84c6.63,115.87-137.33,152.55-121.77,258.96
		c9.53,65.17,74.28,124.92,140.98,147.34c151.71,50.99,317.7-89.74,380.89-29.46c17.9,17.07,32.97,46,79.05,86.54
		c8.21,7.22,18.71,13.92,33.06,19.75c97.08,39.48,155.18-47.95,311.19-34.79c20.02,1.69,91.03,9.2,160.43,17.39
		c20.36,2.4,37.05,4.45,47.93,5.8"/>
</g>
<g>
	<g>
		<path class="st1" d="M584.14,880.66l-159.01-78.23c-3-1.48-4.29-5.02-2.86-7.92l20.91-42.49c1.42-2.89,5.01-4.04,8.02-2.57
			l159.01,78.23c3,1.48,4.29,5.02,2.86,7.92l-20.91,42.49C590.73,880.99,587.14,882.14,584.14,880.66z"/>
		<g>
			<path class="st2" d="M584.19,862.01l-143.98-70.83c-3.96-1.95-5.59-6.74-3.64-10.7l23.47-47.71c1.95-3.96,6.74-5.59,10.7-3.64
				l143.98,70.83c3.96,1.95,5.59,6.74,3.64,10.7l-23.47,47.71C592.94,862.33,588.15,863.96,584.19,862.01z"/>
			<path class="st3" d="M449.47,795.74l-12.87-6.33c-1.97-0.97-2.78-3.35-1.81-5.32l5.91-12.01c0.97-1.97,3.35-2.78,5.32-1.81
				l12.87,6.33c1.97,0.97,2.78,3.35,1.81,5.32l-5.91,12.01C453.82,795.9,451.44,796.71,449.47,795.74z"/>
			<path class="st3" d="M471.62,750.73l-12.87-6.33c-1.97-0.97-2.78-3.35-1.81-5.32l4.88-9.92c0.97-1.97,3.35-2.78,5.32-1.81
				l12.87,6.33c1.97,0.97,2.78,3.35,1.81,5.32l-4.88,9.91C475.96,750.89,473.58,751.7,471.62,750.73z"/>
			<path class="st3" d="M609.94,818.78l-12.95-6.37c-1.97-0.97-2.78-3.35-1.81-5.32l4.88-9.92c0.97-1.97,3.35-2.78,5.32-1.81
				l12.95,6.37c1.97,0.97,2.78,3.35,1.81,5.32l-4.88,9.91C614.29,818.94,611.91,819.75,609.94,818.78z"/>
			<path class="st3" d="M587.8,863.79l-12.95-6.37c-1.97-0.97-2.78-3.35-1.81-5.32l5.91-12.01c0.97-1.97,3.35-2.78,5.32-1.81
				l12.95,6.37c1.97,0.97,2.78,3.35,1.81,5.32l-5.91,12.01C592.15,863.94,589.76,864.76,587.8,863.79z"/>
			
				<ellipse transform="matrix(0.4414 -0.8973 0.8973 0.4414 -419.2378 917.6744)" class="st3" cx="527.46" cy="795.57" rx="20.64" ry="24.11"/>
		</g>
		
			<rect x="513.67" y="756.43" transform="matrix(0.4414 -0.8973 0.8973 0.4414 -453.1945 923.2341)" class="st4" width="2.56" height="138.38"/>
	</g>
	<g>
		<path class="st1" d="M773.55,866.93l-162.23,71.32c-3.07,1.35-6.6,0.05-7.9-2.91l-19.06-43.35c-1.3-2.95,0.13-6.44,3.2-7.79
			l162.23-71.32c3.07-1.35,6.6-0.05,7.9,2.91l19.06,43.35C778.05,862.09,776.62,865.58,773.55,866.93z"/>
		<g>
			<path class="st2" d="M759.32,854.88l-146.89,64.58c-4.04,1.78-8.75-0.06-10.53-4.1l-21.4-48.68c-1.78-4.04,0.06-8.75,4.1-10.53
				l146.89-64.58c4.04-1.78,8.75,0.06,10.53,4.1l21.4,48.67C765.19,848.39,763.36,853.1,759.32,854.88z"/>
			<path class="st3" d="M621.87,915.3l-13.13,5.77c-2.01,0.88-4.35-0.03-5.24-2.04l-5.39-12.25c-0.88-2.01,0.03-4.35,2.04-5.24
				l13.13-5.77c2.01-0.88,4.35,0.03,5.24,2.04l5.39,12.25C624.79,912.07,623.88,914.42,621.87,915.3z"/>
			<path class="st3" d="M601.69,869.38l-13.13,5.77c-2.01,0.88-4.35-0.03-5.24-2.04L578.87,863c-0.88-2.01,0.03-4.35,2.04-5.24
				l13.13-5.77c2.01-0.88,4.35,0.03,5.24,2.04l4.45,10.11C604.61,866.16,603.7,868.5,601.69,869.38z"/>
			<path class="st3" d="M742.81,807.34l-13.21,5.81c-2.01,0.88-4.35-0.03-5.24-2.04L719.91,801c-0.88-2.01,0.03-4.35,2.04-5.24
				l13.21-5.81c2.01-0.88,4.35,0.03,5.24,2.04l4.45,10.11C745.73,804.12,744.82,806.46,742.81,807.34z"/>
			<path class="st3" d="M762.99,853.26l-13.21,5.81c-2.01,0.88-4.35-0.03-5.24-2.04l-5.39-12.25c-0.88-2.01,0.03-4.35,2.04-5.24
				l13.21-5.81c2.01-0.88,4.35,0.03,5.24,2.04l5.39,12.25C765.91,850.03,765,852.38,762.99,853.26z"/>
			
				<ellipse transform="matrix(0.9154 -0.4024 0.4024 0.9154 -287.4825 342.766)" class="st3" cx="671.95" cy="855.52" rx="24.11" ry="20.64"/>
		</g>
		
			<rect x="617.7" y="883.16" transform="matrix(0.9154 -0.4024 0.4024 0.9154 -297.8589 351.2252)" class="st4" width="138.38" height="2.56"/>
	</g>
	<g>
		<path class="st1" d="M755.1,939.93l-177.19-3.17c-3.35-0.06-6.02-2.72-5.96-5.95l0.85-47.35c0.06-3.23,2.82-5.79,6.17-5.73
			l177.19,3.17c3.35,0.06,6.02,2.72,5.96,5.95l-0.85,47.35C761.2,937.43,758.45,939.99,755.1,939.93z"/>
		<g>
			<path class="st2" d="M747.21,923.03l-160.44-2.87c-4.41-0.08-7.93-3.72-7.85-8.13l0.95-53.17c0.08-4.41,3.72-7.93,8.13-7.85
				l160.44,2.87c4.41,0.08,7.93,3.72,7.85,8.13l-0.95,53.16C755.27,919.59,751.63,923.11,747.21,923.03z"/>
			<path class="st3" d="M597.1,920.34l-14.35-0.26c-2.19-0.04-3.94-1.85-3.9-4.04l0.24-13.38c0.04-2.19,1.85-3.94,4.04-3.9
				l14.35,0.26c2.19,0.04,3.94,1.85,3.9,4.04l-0.24,13.38C601.11,918.63,599.3,920.38,597.1,920.34z"/>
			<path class="st3" d="M598,870.19l-14.35-0.26c-2.19-0.04-3.94-1.85-3.9-4.04l0.2-11.05c0.04-2.19,1.85-3.94,4.04-3.9l14.35,0.26
				c2.19,0.04,3.94,1.85,3.9,4.04l-0.2,11.05C602,868.49,600.19,870.23,598,870.19z"/>
			<path class="st3" d="M752.13,872.95l-14.43-0.26c-2.19-0.04-3.94-1.85-3.9-4.04l0.2-11.05c0.04-2.19,1.85-3.94,4.04-3.9
				l14.43,0.26c2.19,0.04,3.94,1.85,3.9,4.04l-0.2,11.05C756.13,871.24,754.32,872.99,752.13,872.95z"/>
			<path class="st3" d="M751.23,923.1l-14.43-0.26c-2.19-0.04-3.94-1.85-3.9-4.04l0.24-13.38c0.04-2.19,1.85-3.94,4.04-3.9
				l14.43,0.26c2.19,0.04,3.94,1.85,3.9,4.04l-0.24,13.38C755.24,921.39,753.43,923.14,751.23,923.1z"/>
			
				<ellipse transform="matrix(0.0179 -0.9998 0.9998 0.0179 -231.2168 1538.6512)" class="st3" cx="667.61" cy="887.02" rx="20.64" ry="24.11"/>
		</g>
		
			<rect x="667.79" y="850.35" transform="matrix(0.0179 -0.9998 0.9998 0.0179 -262.3028 1572.0482)" class="st4" width="2.56" height="138.38"/>
	</g>
	<g>
		<path class="st1" d="M693.46,865.22l-167.28-58.5c-3.16-1.11-4.86-4.47-3.79-7.52l15.63-44.7c1.07-3.05,4.49-4.62,7.65-3.51
			l167.28,58.5c3.16,1.11,4.86,4.47,3.79,7.52l-15.63,44.7C700.05,864.75,696.62,866.32,693.46,865.22z"/>
		<g>
			<path class="st2" d="M691.27,846.7L539.8,793.72c-4.17-1.46-6.36-6.01-4.9-10.18l17.55-50.19c1.46-4.17,6.01-6.36,10.18-4.9
				l151.47,52.97c4.17,1.46,6.36,6.01,4.9,10.18l-17.55,50.19C699.99,845.96,695.43,848.16,691.27,846.7z"/>
			<path class="st3" d="M549.55,797.13L536,792.4c-2.07-0.72-3.16-2.99-2.44-5.06l4.42-12.64c0.72-2.07,2.99-3.16,5.06-2.44
				l13.54,4.74c2.07,0.72,3.16,2.99,2.44,5.06l-4.42,12.64C553.89,796.76,551.62,797.86,549.55,797.13z"/>
			<path class="st3" d="M566.11,749.79l-13.54-4.74c-2.07-0.72-3.16-2.99-2.44-5.06l3.65-10.43c0.72-2.07,2.99-3.16,5.06-2.44
				l13.54,4.74c2.07,0.72,3.16,2.99,2.44,5.06l-3.65,10.43C570.44,749.42,568.18,750.51,566.11,749.79z"/>
			<path class="st3" d="M711.62,800.68l-13.63-4.77c-2.07-0.72-3.16-2.99-2.44-5.06l3.65-10.43c0.72-2.07,2.99-3.16,5.06-2.44
				l13.63,4.77c2.07,0.72,3.16,2.99,2.44,5.06l-3.65,10.43C715.96,800.31,713.69,801.4,711.62,800.68z"/>
			<path class="st3" d="M695.06,848.02l-13.63-4.77c-2.07-0.72-3.16-2.99-2.44-5.06l4.42-12.64c0.72-2.07,2.99-3.16,5.06-2.44
				l13.63,4.77c2.07,0.72,3.16,2.99,2.44,5.06l-4.42,12.64C699.4,847.65,697.13,848.75,695.06,848.02z"/>
			
				<ellipse transform="matrix(0.3301 -0.9439 0.9439 0.3301 -323.4424 1119.3693)" class="st3" cx="626.95" cy="787.57" rx="20.64" ry="24.11"/>
		</g>
		
			<rect x="616.87" y="749.72" transform="matrix(0.3301 -0.9439 0.9439 0.3301 -358.9236 1132.0566)" class="st4" width="2.56" height="138.38"/>
	</g>
	<g>
		<path class="st1" d="M574.72,946.19L425.6,850.44c-2.82-1.81-3.69-5.48-1.95-8.19l25.59-39.85c1.74-2.71,5.44-3.45,8.26-1.64
			l149.12,95.75c2.82,1.81,3.69,5.48,1.95,8.19l-25.59,39.85C581.24,947.26,577.54,948,574.72,946.19z"/>
		<g>
			<path class="st2" d="M576.89,927.67l-135.02-86.7c-3.71-2.39-4.79-7.33-2.41-11.04l28.73-44.74c2.38-3.71,7.33-4.79,11.04-2.41
				l135.02,86.7c3.71,2.39,4.79,7.33,2.41,11.04l-28.73,44.74C585.55,928.97,580.6,930.05,576.89,927.67z"/>
			<path class="st3" d="M450.56,846.55l-12.07-7.75c-1.85-1.19-2.38-3.64-1.2-5.49l7.23-11.26c1.19-1.85,3.64-2.38,5.49-1.2
				l12.07,7.75c1.85,1.19,2.38,3.64,1.2,5.49l-7.23,11.26C454.86,847.19,452.4,847.73,450.56,846.55z"/>
			<path class="st3" d="M477.66,804.34l-12.07-7.75c-1.85-1.19-2.38-3.64-1.2-5.49l5.97-9.3c1.19-1.85,3.64-2.38,5.49-1.2
				l12.07,7.75c1.85,1.19,2.38,3.64,1.2,5.49l-5.97,9.3C481.96,804.99,479.5,805.52,477.66,804.34z"/>
			<path class="st3" d="M607.37,887.63l-12.15-7.8c-1.85-1.19-2.38-3.64-1.2-5.49l5.97-9.3c1.19-1.85,3.64-2.38,5.49-1.2l12.15,7.8
				c1.85,1.19,2.38,3.64,1.2,5.49l-5.97,9.3C611.68,888.28,609.22,888.82,607.37,887.63z"/>
			<path class="st3" d="M580.27,929.84l-12.15-7.8c-1.85-1.19-2.38-3.64-1.2-5.49l7.23-11.26c1.19-1.85,3.64-2.38,5.49-1.2
				l12.15,7.8c1.85,1.19,2.38,3.64,1.2,5.49l-7.23,11.26C584.58,930.48,582.12,931.02,580.27,929.84z"/>
			
				<ellipse transform="matrix(0.5403 -0.8415 0.8415 0.5403 -476.8938 837.4777)" class="st3" cx="528.06" cy="855.22" rx="20.64" ry="24.11"/>
		</g>
		
			<rect x="510.94" y="814.47" transform="matrix(0.5403 -0.8415 0.8415 0.5403 -508.1077 837.2236)" class="st4" width="2.56" height="138.38"/>
	</g>
	<g>
		<path class="st1" d="M860.53,769.91L726.89,886.3c-2.52,2.2-6.29,2.01-8.41-0.42l-31.1-35.71c-2.12-2.43-1.79-6.19,0.74-8.39
			l133.64-116.38c2.52-2.2,6.29-2.01,8.41,0.42l31.1,35.71C863.38,763.96,863.06,767.71,860.53,769.91z"/>
		<g>
			<path class="st2" d="M843.35,762.65L722.35,868.03c-3.33,2.9-8.37,2.55-11.27-0.78l-34.92-40.1c-2.9-3.33-2.55-8.37,0.78-11.27
				L797.94,710.5c3.33-2.9,8.37-2.55,11.27,0.78l34.92,40.1C847.03,754.7,846.68,759.75,843.35,762.65z"/>
			<path class="st3" d="M730.13,861.25l-10.82,9.42c-1.66,1.44-4.16,1.27-5.6-0.39l-8.79-10.1c-1.44-1.65-1.27-4.16,0.39-5.6
				l10.82-9.42c1.66-1.44,4.16-1.27,5.6,0.39l8.79,10.1C731.96,857.3,731.79,859.81,730.13,861.25z"/>
			<path class="st3" d="M697.19,823.43l-10.82,9.42c-1.66,1.44-4.16,1.27-5.6-0.39l-7.26-8.33c-1.44-1.66-1.27-4.16,0.39-5.6
				l10.82-9.42c1.66-1.44,4.16-1.27,5.6,0.39l7.26,8.33C699.02,819.48,698.85,821.99,697.19,823.43z"/>
			<path class="st3" d="M813.44,722.19l-10.89,9.48c-1.66,1.44-4.16,1.27-5.6-0.39l-7.26-8.33c-1.44-1.66-1.27-4.16,0.39-5.6
				l10.89-9.48c1.66-1.44,4.16-1.27,5.6,0.39l7.26,8.33C815.27,718.24,815.1,720.75,813.44,722.19z"/>
			<path class="st3" d="M846.38,760.01l-10.89,9.48c-1.66,1.44-4.16,1.27-5.6-0.39l-8.79-10.09c-1.44-1.66-1.27-4.16,0.39-5.6
				l10.89-9.48c1.66-1.44,4.16-1.27,5.6,0.39l8.79,10.1C848.21,756.06,848.04,758.57,846.38,760.01z"/>
			
				<ellipse transform="matrix(0.7541 -0.6567 0.6567 0.7541 -331.4397 693.2886)" class="st3" cx="760.14" cy="789.27" rx="24.11" ry="20.64"/>
		</g>
		
			<rect x="713.82" y="811.15" transform="matrix(0.7541 -0.6567 0.6567 0.7541 -341.0268 714.0076)" class="st4" width="138.38" height="2.56"/>
	</g>
	<g>
		<path class="st1" d="M891.46,834.71L753.5,945.95c-2.61,2.1-6.36,1.77-8.39-0.74l-29.73-36.87c-2.02-2.51-1.55-6.25,1.05-8.35
			L854.4,788.75c2.61-2.1,6.36-1.77,8.39,0.74l29.73,36.87C894.53,828.87,894.06,832.61,891.46,834.71z"/>
		<g>
			<path class="st2" d="M874.57,826.81L749.65,927.53c-3.44,2.77-8.47,2.23-11.24-1.2l-33.38-41.39c-2.77-3.44-2.23-8.47,1.2-11.24
				l124.91-100.72c3.44-2.77,8.47-2.23,11.24,1.2l33.38,41.39C878.54,819,878,824.04,874.57,826.81z"/>
			<path class="st3" d="M757.69,921.05l-11.17,9.01c-1.71,1.38-4.21,1.11-5.59-0.6l-8.4-10.42c-1.38-1.71-1.11-4.21,0.6-5.59
				l11.17-9.01c1.71-1.38,4.21-1.11,5.59,0.6l8.4,10.42C759.67,917.16,759.4,919.67,757.69,921.05z"/>
			<path class="st3" d="M726.21,882L715.04,891c-1.71,1.38-4.21,1.11-5.59-0.6l-6.94-8.6c-1.38-1.71-1.11-4.21,0.6-5.59l11.17-9.01
				c1.71-1.38,4.21-1.11,5.59,0.6l6.93,8.6C728.18,878.12,727.92,880.62,726.21,882z"/>
			<path class="st3" d="M846.21,785.24l-11.24,9.06c-1.71,1.38-4.21,1.11-5.59-0.6l-6.94-8.6c-1.38-1.71-1.11-4.21,0.6-5.59
				l11.24-9.06c1.71-1.38,4.21-1.11,5.59,0.6l6.93,8.6C848.19,781.36,847.92,783.86,846.21,785.24z"/>
			<path class="st3" d="M877.69,824.28l-11.24,9.06c-1.71,1.38-4.21,1.11-5.59-0.6l-8.4-10.42c-1.38-1.71-1.11-4.21,0.6-5.59
				l11.24-9.06c1.71-1.38,4.21-1.11,5.59,0.6l8.4,10.42C879.67,820.4,879.4,822.91,877.69,824.28z"/>
			
				<ellipse transform="matrix(0.7785 -0.6277 0.6277 0.7785 -358.5902 684.4926)" class="st3" cx="790.4" cy="850.25" rx="24.11" ry="20.64"/>
		</g>
		
			<rect x="743.19" y="872.98" transform="matrix(0.7785 -0.6277 0.6277 0.7785 -368.7932 703.61)" class="st4" width="138.38" height="2.56"/>
	</g>
</g>
<linearGradient id="SVGID_1_" gradientUnits="userSpaceOnUse" x1="344.9831" y1="608.8893" x2="1137.5076" y2="608.8893">
	<stop  offset="0" style="stop-color:#2484C6"/>
	<stop  offset="1" style="stop-color:#2484C6;stop-opacity:0"/>
</linearGradient>
<path class="st5" d="M1137.51,860.42c-23.75,5.39-47.49,10.79-71.24,16.18c-4.24-10.59-11.02-24.83-21.83-40.09
	c-2.98-4.21-8.98-12.32-17.75-21.57c-16.83-17.74-24.93-26.9-38.77-31.88c-4.93-1.77-20.29-7.3-35.47-1.36
	c-11.96,4.67-16.4,13.57-30.01,35.3c-7.17,11.44-25,39.89-40.89,59.42c0,0-15.48,18.44-39.81,38.55
	c-156.32,129.24-347.09,9.18-355.95,3.38c-39.46-25.81-115.02-75.23-135.6-179.46c-17.03-86.22,9-182.45,59.32-235.34
	c48.53-51,80.01-20.05,132.78-72.8c66.63-66.61,44.45-143.96,100.29-176.08c45.6-26.23,114.28-5.64,149.72,40.63
	c47.05,61.42,8.23,143.59,59.33,184.55c40.27,32.29,79.03-1.26,111.58,33.86c42.75,46.12-31.27,158.96,7.3,186.87
	c3.79,2.74,7.61,3.96,10.06,4.54c11.76,1.7,28.17,4.93,46.99,11.59c10,3.54,18.47,6.85,27.19,11.27c0,0,10.78,5.51,20.2,12
	C1091.13,751.12,1118.11,795.47,1137.51,860.42z"/>
<linearGradient id="SVGID_00000176732825059083061580000003259021137465110952_" gradientUnits="userSpaceOnUse" x1="605.2526" y1="270.9186" x2="796.5207" y2="270.9186">
	<stop  offset="0" style="stop-color:#224F91"/>
	<stop  offset="1" style="stop-color:#000000"/>
</linearGradient>
<path style="fill:url(#SVGID_00000176732825059083061580000003259021137465110952_);stroke:#006C94;stroke-width:20;stroke-miterlimit:10;" d="
	M796.52,270.91c0,21.46-42.82,38.85-95.64,38.85s-95.63-17.39-95.63-38.85c0-21.45,42.81-38.84,95.63-38.84
	S796.52,249.46,796.52,270.91z"/>
<g>
	<path class="st1" d="M615.44,214.72l-159.01-78.23c-3-1.48-4.29-5.02-2.86-7.92l20.91-42.49c1.42-2.89,5.01-4.04,8.02-2.57
		l159.01,78.23c3,1.48,4.29,5.02,2.86,7.92l-20.91,42.49C622.03,215.05,618.44,216.2,615.44,214.72z"/>
	<g>
		<path class="st2" d="M615.49,196.07l-143.98-70.83c-3.96-1.95-5.59-6.74-3.64-10.7l23.47-47.71c1.95-3.96,6.74-5.59,10.7-3.64
			l143.98,70.83c3.96,1.95,5.59,6.74,3.64,10.7l-23.47,47.71C624.24,196.38,619.45,198.02,615.49,196.07z"/>
		<path class="st3" d="M480.77,129.8l-12.87-6.33c-1.97-0.97-2.78-3.35-1.81-5.32l5.91-12.01c0.97-1.97,3.35-2.78,5.32-1.81
			l12.87,6.33c1.97,0.97,2.78,3.35,1.81,5.32l-5.91,12.01C485.12,129.95,482.74,130.76,480.77,129.8z"/>
		<path class="st3" d="M502.91,84.79l-12.87-6.33c-1.97-0.97-2.78-3.35-1.81-5.32l4.88-9.92c0.97-1.97,3.35-2.78,5.32-1.81
			l12.87,6.33c1.97,0.97,2.78,3.35,1.81,5.32l-4.88,9.91C507.26,84.95,504.88,85.76,502.91,84.79z"/>
		<path class="st3" d="M641.24,152.84l-12.95-6.37c-1.97-0.97-2.78-3.35-1.81-5.32l4.88-9.92c0.97-1.97,3.35-2.78,5.32-1.81
			l12.95,6.37c1.97,0.97,2.78,3.35,1.81,5.32l-4.88,9.91C645.59,152.99,643.2,153.8,641.24,152.84z"/>
		<path class="st3" d="M619.09,197.84l-12.95-6.37c-1.97-0.97-2.78-3.35-1.81-5.32l5.91-12.01c0.97-1.97,3.35-2.78,5.32-1.81
			l12.95,6.37c1.97,0.97,2.78,3.35,1.81,5.32l-5.91,12.01C623.45,198,621.06,198.81,619.09,197.84z"/>
		
			<ellipse transform="matrix(0.4414 -0.8973 0.8973 0.4414 195.7949 573.7793)" class="st3" cx="558.76" cy="129.63" rx="20.64" ry="24.11"/>
	</g>
	
		<rect x="544.97" y="90.49" transform="matrix(0.4414 -0.8973 0.8973 0.4414 161.8382 579.3391)" class="st4" width="2.56" height="138.38"/>
</g>
<g>
	<path class="st1" d="M401.62,81.98l-112.11,3.5c-2.12,0.07-3.89-1.53-3.95-3.58l-0.94-29.96c-0.06-2.04,1.6-3.75,3.72-3.82
		l112.11-3.5c2.12-0.07,3.89,1.53,3.95,3.58l0.94,29.96C405.4,80.21,403.74,81.92,401.62,81.98z"/>
	<g>
		<path class="st2" d="M396.11,71.55L294.6,74.71c-2.79,0.09-5.13-2.1-5.21-4.9l-1.05-33.64c-0.09-2.79,2.1-5.13,4.9-5.21
			l101.51-3.17c2.79-0.09,5.13,2.1,5.21,4.9l1.05,33.64C401.1,69.12,398.9,71.46,396.11,71.55z"/>
		<path class="st3" d="M301.13,74.51l-9.08,0.28c-1.39,0.04-2.55-1.05-2.59-2.43l-0.26-8.47c-0.04-1.39,1.05-2.55,2.43-2.59
			l9.08-0.28c1.39-0.04,2.55,1.05,2.59,2.43l0.26,8.47C303.61,73.31,302.52,74.47,301.13,74.51z"/>
		<path class="st3" d="M300.14,42.78l-9.08,0.28c-1.39,0.04-2.55-1.05-2.59-2.43l-0.22-6.99c-0.04-1.39,1.05-2.55,2.43-2.59
			l9.08-0.28c1.39-0.04,2.55,1.05,2.59,2.43l0.22,6.99C302.62,41.58,301.53,42.74,300.14,42.78z"/>
		<path class="st3" d="M397.66,39.73l-9.13,0.29c-1.39,0.04-2.55-1.05-2.59-2.43l-0.22-6.99c-0.04-1.39,1.05-2.55,2.43-2.59
			l9.13-0.29c1.39-0.04,2.55,1.05,2.59,2.43l0.22,6.99C400.14,38.53,399.05,39.69,397.66,39.73z"/>
		<path class="st3" d="M398.65,71.47l-9.13,0.29c-1.39,0.04-2.55-1.05-2.59-2.43l-0.26-8.47c-0.04-1.39,1.05-2.55,2.43-2.59
			l9.13-0.29c1.39-0.04,2.55,1.05,2.59,2.43l0.26,8.47C401.13,70.26,400.04,71.42,398.65,71.47z"/>
		
			<ellipse transform="matrix(0.9995 -0.0312 0.0312 0.9995 -1.4316 10.7811)" class="st3" cx="344.67" cy="51.26" rx="15.26" ry="13.06"/>
	</g>
	
		<rect x="302.81" y="70.96" transform="matrix(0.9995 -0.0312 0.0312 0.9995 -2.0709 10.8513)" class="st4" width="87.59" height="1.62"/>
</g>
<linearGradient id="SVGID_00000009564921803594761590000006708315202335240889_" gradientUnits="userSpaceOnUse" x1="1076.0854" y1="717.7365" x2="1076.0854" y2="717.7365">
	<stop  offset="0" style="stop-color:#2484C6"/>
	<stop  offset="1" style="stop-color:#2484C6;stop-opacity:0"/>
</linearGradient>
<path style="fill:url(#SVGID_00000009564921803594761590000006708315202335240889_);stroke:#00A79D;stroke-width:20;stroke-miterlimit:10;" d="
	M1076.09,717.74"/>
<linearGradient id="SVGID_00000167360453725793836000000009861727893012226232_" gradientUnits="userSpaceOnUse" x1="1079.8445" y1="877.2307" x2="1079.8445" y2="877.2307">
	<stop  offset="0" style="stop-color:#2484C6"/>
	<stop  offset="1" style="stop-color:#2484C6;stop-opacity:0"/>
</linearGradient>
<line style="fill:url(#SVGID_00000167360453725793836000000009861727893012226232_);stroke:#00A79D;stroke-width:20;stroke-miterlimit:10;" x1="1079.84" y1="877.23" x2="1079.84" y2="877.23"/>
<linearGradient id="SVGID_00000040540528580659856130000011844618395607176596_" gradientUnits="userSpaceOnUse" x1="1166.3888" y1="834.0145" x2="1166.3888" y2="834.0145">
	<stop  offset="0" style="stop-color:#2484C6"/>
	<stop  offset="1" style="stop-color:#2484C6;stop-opacity:0"/>
</linearGradient>
<path style="fill:url(#SVGID_00000040540528580659856130000011844618395607176596_);stroke:#00A79D;stroke-width:20;stroke-miterlimit:10;" d="
	M1166.39,834.01"/>
<linearGradient id="SVGID_00000060028915938194116690000005762339101099376573_" gradientUnits="userSpaceOnUse" x1="1012.6201" y1="809.3135" x2="1203.8882" y2="809.3135" gradientTransform="matrix(-0.5503 0.1773 -0.1295 -0.4021 1819.6665 998.9819)">
	<stop  offset="0" style="stop-color:#224F91"/>
	<stop  offset="1" style="stop-color:#000000"/>
</linearGradient>
<path style="fill:url(#SVGID_00000060028915938194116690000005762339101099376573_);stroke:#006C94;stroke-width:14;stroke-miterlimit:10;" d="
	M1052.35,886.95c-2.78-8.63,18.53-23.21,47.6-32.58c29.07-9.36,54.88-9.96,57.66-1.33c2.78,8.63-18.53,23.21-47.59,32.57
	C1080.94,894.98,1055.13,895.58,1052.35,886.95z"/>
<g>
	<path class="st1" d="M1203.2,1007.42l-106.9-52.59c-2.02-0.99-2.88-3.38-1.92-5.32l14.05-28.57c0.96-1.95,3.37-2.72,5.39-1.72
		l106.9,52.59c2.02,0.99,2.88,3.38,1.92,5.32l-14.05,28.57C1207.63,1007.64,1205.22,1008.42,1203.2,1007.42z"/>
	<g>
		<path class="st2" d="M1203.23,994.89l-96.8-47.62c-2.66-1.31-3.76-4.53-2.45-7.19l15.78-32.08c1.31-2.66,4.53-3.76,7.19-2.45
			l96.8,47.62c2.66,1.31,3.76,4.53,2.45,7.19l-15.78,32.08C1209.11,995.1,1205.89,996.2,1203.23,994.89z"/>
		<path class="st3" d="M1112.66,950.33l-8.66-4.26c-1.32-0.65-1.87-2.25-1.22-3.58l3.97-8.08c0.65-1.32,2.25-1.87,3.58-1.22
			l8.66,4.26c1.32,0.65,1.87,2.25,1.22,3.58l-3.97,8.08C1115.59,950.43,1113.98,950.98,1112.66,950.33z"/>
		<path class="st3" d="M1127.55,920.07l-8.66-4.26c-1.32-0.65-1.87-2.25-1.22-3.58l3.28-6.67c0.65-1.32,2.25-1.87,3.58-1.22
			l8.66,4.26c1.32,0.65,1.87,2.25,1.22,3.58l-3.28,6.66C1130.47,920.18,1128.87,920.72,1127.55,920.07z"/>
		<path class="st3" d="M1220.54,965.82l-8.71-4.28c-1.32-0.65-1.87-2.25-1.22-3.58l3.28-6.67c0.65-1.32,2.25-1.87,3.58-1.22
			l8.71,4.28c1.32,0.65,1.87,2.25,1.22,3.58l-3.28,6.66C1223.46,965.93,1221.86,966.47,1220.54,965.82z"/>
		<path class="st3" d="M1205.65,996.08l-8.71-4.28c-1.32-0.65-1.87-2.25-1.22-3.58l3.97-8.08c0.65-1.32,2.25-1.87,3.58-1.22
			l8.71,4.28c1.32,0.65,1.87,2.25,1.22,3.58l-3.97,8.08C1208.58,996.18,1206.98,996.73,1205.65,996.08z"/>
		
			<ellipse transform="matrix(0.4414 -0.8973 0.8973 0.4414 -201.8374 1576.1997)" class="st3" cx="1165.09" cy="950.22" rx="13.88" ry="16.21"/>
	</g>
	
		<rect x="1155.82" y="923.9" transform="matrix(0.4414 -0.8973 0.8973 0.4414 -224.6663 1579.9375)" class="st4" width="1.72" height="93.03"/>
</g>
<g>
	<path class="st1" d="M1296.18,1058.89l-79.71,11.25c-1.51,0.21-2.89-0.79-3.1-2.24l-3.01-21.3c-0.2-1.45,0.85-2.8,2.36-3.01
		l79.71-11.25c1.51-0.21,2.89,0.79,3.1,2.24l3.01,21.3C1298.74,1057.33,1297.68,1058.68,1296.18,1058.89z"/>
	<g>
		<path class="st2" d="M1291.43,1051.88l-72.17,10.18c-1.99,0.28-3.82-1.1-4.1-3.09l-3.37-23.92c-0.28-1.99,1.1-3.82,3.09-4.1
			l72.17-10.18c1.99-0.28,3.82,1.1,4.1,3.09l3.37,23.92C1294.8,1049.76,1293.42,1051.6,1291.43,1051.88z"/>
		<path class="st3" d="M1223.9,1061.4l-6.45,0.91c-0.99,0.14-1.9-0.55-2.04-1.53l-0.85-6.02c-0.14-0.99,0.55-1.9,1.53-2.04
			l6.45-0.91c0.99-0.14,1.9,0.55,2.04,1.53l0.85,6.02C1225.58,1060.35,1224.89,1061.26,1223.9,1061.4z"/>
		<path class="st3" d="M1220.72,1038.84l-6.45,0.91c-0.99,0.14-1.9-0.55-2.04-1.53l-0.7-4.97c-0.14-0.99,0.55-1.9,1.53-2.04
			l6.45-0.91c0.99-0.14,1.9,0.55,2.04,1.53l0.7,4.97C1222.39,1037.79,1221.71,1038.7,1220.72,1038.84z"/>
		<path class="st3" d="M1290.06,1029.06l-6.49,0.92c-0.99,0.14-1.9-0.55-2.04-1.53l-0.7-4.97c-0.14-0.99,0.55-1.9,1.53-2.04
			l6.49-0.92c0.99-0.14,1.9,0.55,2.04,1.53l0.7,4.97C1291.73,1028.01,1291.04,1028.92,1290.06,1029.06z"/>
		<path class="st3" d="M1293.24,1051.62l-6.49,0.92c-0.99,0.14-1.9-0.55-2.04-1.53l-0.85-6.02c-0.14-0.99,0.55-1.9,1.53-2.04
			l6.49-0.92c0.99-0.14,1.9,0.55,2.04,1.53l0.85,6.02C1294.91,1050.57,1294.23,1051.48,1293.24,1051.62z"/>
		
			<ellipse transform="matrix(0.9902 -0.1397 0.1397 0.9902 -133.2001 185.2824)" class="st3" cx="1253.15" cy="1041.41" rx="10.95" ry="9.38"/>
	</g>
	
		<rect x="1224.7" y="1055.32" transform="matrix(0.9902 -0.1397 0.1397 0.9902 -135.1945 185.8406)" class="st4" width="62.86" height="1.16"/>
</g>
</svg>
